<?xml version="1.0" encoding="utf-8"?>
<!-- Generator: Adobe Illustrator 25.2.0, SVG Export Plug-In . SVG Version: 6.00 Build 0)  -->
<svg version="1.1" id="Layer_1" xmlns="http://www.w3.org/2000/svg" xmlns:xlink="http://www.w3.org/1999/xlink" x="0px" y="0px"
	 viewBox="0 0 1200 1200" enable-background="new 0 0 1200 1200" xml:space="preserve">
<g>
	<polygon fill="#080808" points="1161.29,735.48 1161.29,696.77 1122.58,696.77 1083.87,696.77 1083.87,658.06 1083.87,619.35 
		1083.87,580.64 1083.87,541.93 1083.87,503.22 1083.87,464.51 1083.87,425.8 1083.87,387.09 1083.87,348.38 1083.87,309.67 
		1083.87,270.96 1083.87,232.26 1083.87,193.55 1083.87,154.84 1083.87,116.13 1083.87,77.42 1083.87,38.71 1045.16,38.71 
		1045.16,77.42 1045.16,116.13 1045.16,154.84 1045.16,193.55 1045.16,232.26 1045.16,270.96 1045.16,309.67 1045.16,348.38 
		1045.16,387.09 1045.16,425.8 1045.16,464.51 1045.16,503.22 1045.16,541.93 1045.16,580.64 1045.16,619.35 1045.16,658.06 
		1045.16,696.77 1006.45,696.77 1006.45,735.48 1045.16,735.48 1083.87,735.48 1122.58,735.48 1122.58,774.19 1161.29,774.19 
		1161.29,812.9 1161.29,851.61 1161.29,890.32 1161.29,929.03 1161.29,967.74 1161.29,1006.45 1200,1006.45 1200,967.74 
		1200,929.03 1200,890.32 1200,851.61 1200,812.9 1200,774.19 1200,735.48 	"/>
	<rect x="1122.58" y="1006.45" fill="#080808" width="38.71" height="38.71"/>
	<polygon fill="#808080" points="1161.29,929.03 1161.29,890.32 1161.29,851.61 1161.29,812.9 1161.29,774.19 1122.58,774.19 
		1083.87,774.19 1083.87,812.9 1045.16,812.9 1045.16,851.61 1006.45,851.61 1006.45,890.32 1006.45,929.03 1006.45,967.74 
		1006.45,1006.45 1006.45,1045.16 1006.45,1083.87 1006.45,1122.58 1045.16,1122.58 1045.16,1083.87 1083.87,1083.87 
		1083.87,1045.16 1122.58,1045.16 1122.58,1006.45 1161.29,1006.45 1161.29,967.74 	"/>
	<rect x="1083.87" y="1045.16" fill="#080808" width="38.71" height="38.71"/>
	<rect x="1083.87" y="735.48" fill="#FDFDFD" width="38.71" height="38.71"/>
	<rect x="1045.16" y="1083.87" fill="#080808" width="38.71" height="38.71"/>
	<rect x="1045.16" y="774.19" fill="#FDFDFD" width="38.71" height="38.71"/>
	<rect x="1006.45" y="1122.58" fill="#080808" width="38.71" height="38.71"/>
	<rect x="1006.45" y="812.9" fill="#FDFDFD" width="38.71" height="38.71"/>
	<polygon fill="#808080" points="1006.45,116.13 967.74,116.13 967.74,154.84 929.03,154.84 929.03,193.55 929.03,232.26 
		929.03,270.96 929.03,309.67 929.03,348.38 929.03,387.09 929.03,425.8 929.03,464.51 929.03,503.22 929.03,541.93 929.03,580.64 
		929.03,619.35 929.03,658.06 929.03,696.77 929.03,735.48 929.03,774.19 967.74,774.19 967.74,735.48 1006.45,735.48 
		1006.45,696.77 1045.16,696.77 1045.16,658.06 1045.16,619.35 1045.16,580.64 1045.16,541.93 1045.16,503.22 1045.16,464.51 
		1045.16,425.8 1045.16,387.09 1045.16,348.38 1045.16,309.67 1045.16,270.96 1045.16,232.26 1045.16,193.55 1045.16,154.84 
		1045.16,116.13 1045.16,77.42 1006.45,77.42 	"/>
	<rect x="1006.45" y="38.71" fill="#FDFDFD" width="38.71" height="38.71"/>
	<path fill="#BFBFBF" d="M1006.45,1083.87v-38.71v-38.71v-38.71v-38.71v-38.71h-38.71h-38.71h-38.71h-38.71H812.9h-38.71h-38.7
		h-38.71h-38.71h-38.71h-38.71h-38.71h-38.71h-38.71h-38.71H387.1h-38.71h-38.71h-38.71h-38.71h-38.71h-38.71h-38.71H77.42v38.71
		v38.71v38.71v38.71v38.71v38.71v38.71h38.71h38.71h38.71h38.71h38.71h38.71h38.71h38.71h38.71h38.71h38.71h38.71h38.71h38.71h38.71
		h38.71h38.71h38.7h38.71h38.71h38.71h38.71h38.71h38.71v-38.71V1083.87z M154.84,1006.45v-38.71h38.71h38.71v38.71v38.71h-38.71
		h-38.71V1006.45z M929.03,1006.45h-38.71h-38.71H812.9h-38.71h-38.7h-38.71h-38.71h-38.71h-38.71v-38.71h38.71h38.71h38.71h38.71
		h38.7h38.71h38.71h38.71h38.71V1006.45z"/>
	<rect x="967.74" y="735.48" fill="#080808" width="38.71" height="38.71"/>
	<rect x="967.74" y="77.42" fill="#FDFDFD" width="38.71" height="38.71"/>
	<polygon fill="#080808" points="929.03,1161.29 890.32,1161.29 851.61,1161.29 812.9,1161.29 774.19,1161.29 735.49,1161.29 
		696.78,1161.29 658.07,1161.29 619.36,1161.29 580.65,1161.29 541.94,1161.29 503.23,1161.29 464.52,1161.29 425.81,1161.29 
		387.1,1161.29 348.39,1161.29 309.68,1161.29 270.97,1161.29 232.26,1161.29 193.55,1161.29 154.84,1161.29 116.13,1161.29 
		77.42,1161.29 38.71,1161.29 38.71,1200 77.42,1200 116.13,1200 154.84,1200 193.55,1200 232.26,1200 270.97,1200 309.68,1200 
		348.39,1200 387.1,1200 425.81,1200 464.52,1200 503.23,1200 541.94,1200 580.65,1200 619.36,1200 658.07,1200 696.78,1200 
		735.49,1200 774.19,1200 812.9,1200 851.61,1200 890.32,1200 929.03,1200 967.74,1200 1006.45,1200 1006.45,1161.29 
		967.74,1161.29 	"/>
	<polygon fill="#080808" points="890.32,774.19 851.61,774.19 812.9,774.19 774.19,774.19 735.49,774.19 696.78,774.19 
		658.07,774.19 619.36,774.19 580.65,774.19 541.94,774.19 503.23,774.19 464.52,774.19 425.81,774.19 387.1,774.19 348.39,774.19 
		309.68,774.19 270.97,774.19 232.26,774.19 193.55,774.19 154.84,774.19 154.84,812.9 193.55,812.9 232.26,812.9 270.97,812.9 
		309.68,812.9 348.39,812.9 387.1,812.9 425.81,812.9 464.52,812.9 503.23,812.9 541.94,812.9 580.65,812.9 619.36,812.9 
		658.07,812.9 696.78,812.9 735.49,812.9 774.19,812.9 812.9,812.9 851.61,812.9 890.32,812.9 929.03,812.9 967.74,812.9 
		967.74,774.19 929.03,774.19 	"/>
	<polygon fill="#080808" points="851.61,967.74 812.9,967.74 774.19,967.74 735.49,967.74 696.78,967.74 658.07,967.74 
		619.36,967.74 580.65,967.74 580.65,1006.45 619.36,1006.45 658.07,1006.45 696.78,1006.45 735.49,1006.45 774.19,1006.45 
		812.9,1006.45 851.61,1006.45 890.32,1006.45 929.03,1006.45 929.03,967.74 890.32,967.74 	"/>
	<polygon fill="#090199" points="812.9,309.67 812.9,348.38 812.9,387.09 812.9,425.8 812.9,464.51 812.9,503.22 812.9,541.93 
		812.9,580.64 812.9,619.35 774.19,619.35 735.49,619.35 696.78,619.35 658.07,619.35 619.36,619.35 580.65,619.35 541.94,619.35 
		503.23,619.35 464.52,619.35 425.81,619.35 387.1,619.35 348.39,619.35 309.68,619.35 270.97,619.35 270.97,658.06 309.68,658.06 
		348.39,658.06 387.1,658.06 425.81,658.06 464.52,658.06 503.23,658.06 541.94,658.06 580.65,658.06 619.36,658.06 658.07,658.06 
		696.78,658.06 735.49,658.06 774.19,658.06 812.9,658.06 851.61,658.06 851.61,619.35 851.61,580.64 851.61,541.93 851.61,503.22 
		851.61,464.51 851.61,425.8 851.61,387.09 851.61,348.38 851.61,309.67 851.61,270.96 812.9,270.96 	"/>
	<polygon fill="#080808" points="735.49,503.22 735.49,464.51 696.78,464.51 696.78,503.22 696.78,541.93 658.07,541.93 
		619.36,541.93 580.65,541.93 541.94,541.93 503.23,541.93 503.23,580.64 541.94,580.64 580.65,580.64 619.36,580.64 658.07,580.64 
		696.78,580.64 735.49,580.64 735.49,541.93 	"/>
	<polygon fill="#FDFDFD" points="619.36,464.51 580.65,464.51 541.94,464.51 541.94,503.22 541.94,541.93 580.65,541.93 
		619.36,541.93 658.07,541.93 696.78,541.93 696.78,503.22 696.78,464.51 658.07,464.51 	"/>
	<polygon fill="#090199" points="541.94,425.8 503.23,425.8 503.23,464.51 541.94,464.51 580.65,464.51 619.36,464.51 
		658.07,464.51 696.78,464.51 735.49,464.51 735.49,425.8 696.78,425.8 658.07,425.8 619.36,425.8 580.65,425.8 	"/>
	<polygon fill="#808080" points="541.94,503.22 541.94,464.51 503.23,464.51 503.23,503.22 503.23,541.93 541.94,541.93 	"/>
	<polygon fill="#FDFDFD" points="541.94,425.8 580.65,425.8 580.65,387.09 541.94,387.09 503.23,387.09 464.52,387.09 
		425.81,387.09 425.81,425.8 425.81,464.51 425.81,503.22 464.52,503.22 503.23,503.22 503.23,464.51 503.23,425.8 	"/>
	<polygon fill="#080808" points="464.52,503.22 425.81,503.22 387.1,503.22 387.1,541.93 425.81,541.93 464.52,541.93 
		503.23,541.93 503.23,503.22 	"/>
	<polygon fill="#080808" points="464.52,387.09 503.23,387.09 541.94,387.09 580.65,387.09 580.65,425.8 619.36,425.8 
		619.36,387.09 619.36,348.38 580.65,348.38 541.94,348.38 503.23,348.38 464.52,348.38 425.81,348.38 387.1,348.38 387.1,387.09 
		425.81,387.09 	"/>
	<polygon fill="#808080" points="425.81,464.51 425.81,425.8 425.81,387.09 387.1,387.09 387.1,425.8 387.1,464.51 387.1,503.22 
		425.81,503.22 	"/>
	<path fill="#1700FF" d="M348.39,619.35h38.71h38.71h38.71h38.71h38.71h38.71h38.71h38.71h38.71h38.71h38.7h38.71v-38.71v-38.71
		v-38.71v-38.71V425.8v-38.71v-38.71v-38.71v-38.71h-38.71h-38.7h-38.71h-38.71h-38.71h-38.71h-38.71h-38.71h-38.71h-38.71H387.1
		h-38.71h-38.71h-38.71v38.71v38.71v38.71v38.71v38.71v38.71v38.71v38.71v38.71h38.71H348.39z M696.78,580.64h-38.71h-38.71h-38.71
		h-38.71h-38.71v-38.71h-38.71h-38.71H387.1v-38.71v-38.71V425.8v-38.71v-38.71h38.71h38.71h38.71h38.71h38.71h38.71v38.71v38.71
		h38.71h38.71h38.71v38.71v38.71v38.71v38.71H696.78z M309.68,348.38v-38.71h38.71v38.71v38.71h-38.71V348.38z"/>
	<polygon fill="#00F1FF" points="348.39,348.38 348.39,309.67 309.68,309.67 309.68,348.38 309.68,387.09 348.39,387.09 	"/>
	<polygon fill="#808080" points="348.39,38.71 387.1,38.71 425.81,38.71 464.52,38.71 503.23,38.71 541.94,38.71 580.65,38.71 
		619.36,38.71 658.07,38.71 696.78,38.71 735.49,38.71 774.19,38.71 812.9,38.71 851.61,38.71 890.32,38.71 929.03,38.71 
		967.74,38.71 1006.45,38.71 1045.16,38.71 1045.16,0 1006.45,0 967.74,0 929.03,0 890.32,0 851.61,0 812.9,0 774.19,0 735.49,0 
		696.78,0 658.07,0 619.36,0 580.65,0 541.94,0 503.23,0 464.52,0 425.81,0 387.1,0 348.39,0 309.68,0 270.97,0 270.97,38.71 
		309.68,38.71 	"/>
	<polygon fill="#FDFDFD" points="309.68,696.77 348.39,696.77 387.1,696.77 425.81,696.77 464.52,696.77 503.23,696.77 
		541.94,696.77 580.65,696.77 619.36,696.77 658.07,696.77 696.78,696.77 735.49,696.77 774.19,696.77 812.9,696.77 851.61,696.77 
		890.32,696.77 890.32,658.06 890.32,619.35 890.32,580.64 890.32,541.93 890.32,503.22 890.32,464.51 890.32,425.8 890.32,387.09 
		890.32,348.38 890.32,309.67 890.32,270.96 890.32,232.26 851.61,232.26 851.61,270.96 851.61,309.67 851.61,348.38 851.61,387.09 
		851.61,425.8 851.61,464.51 851.61,503.22 851.61,541.93 851.61,580.64 851.61,619.35 851.61,658.06 812.9,658.06 774.19,658.06 
		735.49,658.06 696.78,658.06 658.07,658.06 619.36,658.06 580.65,658.06 541.94,658.06 503.23,658.06 464.52,658.06 425.81,658.06 
		387.1,658.06 348.39,658.06 309.68,658.06 270.97,658.06 232.26,658.06 232.26,696.77 270.97,696.77 	"/>
	<path fill="#BFBFBF" d="M270.97,774.19h38.71h38.71h38.71h38.71h38.71h38.71h38.71h38.71h38.71h38.71h38.71h38.71h38.7h38.71h38.71
		h38.71h38.71v-38.71v-38.71v-38.71v-38.71v-38.71v-38.71v-38.71v-38.71V425.8v-38.71v-38.71v-38.71v-38.71v-38.7v-38.71v-38.71
		h-38.71h-38.71H812.9h-38.71h-38.7h-38.71h-38.71h-38.71h-38.71h-38.71h-38.71h-38.71h-38.71H387.1h-38.71h-38.71h-38.71h-38.71
		h-38.71v38.71v38.71v38.7v38.71v38.71v38.71v38.71v38.71v38.71v38.71v38.71v38.71v38.71v38.71v38.71v38.71h38.71H270.97z
		 M232.26,658.06v-38.71v-38.71v-38.71v-38.71v-38.71V425.8v-38.71v-38.71v-38.71v-38.71v-38.7h38.71h38.71h38.71h38.71h38.71h38.71
		h38.71h38.71h38.71h38.71h38.71h38.71h38.71h38.7h38.71h38.71h38.71v38.7v38.71v38.71v38.71v38.71v38.71v38.71v38.71v38.71v38.71
		v38.71v38.71h-38.71H812.9h-38.71h-38.7h-38.71h-38.71h-38.71h-38.71h-38.71h-38.71h-38.71h-38.71H387.1h-38.71h-38.71h-38.71
		h-38.71V658.06z"/>
	<polygon fill="#080808" points="270.97,619.35 270.97,580.64 270.97,541.93 270.97,503.22 270.97,464.51 270.97,425.8 
		270.97,387.09 270.97,348.38 270.97,309.67 270.97,270.96 309.68,270.96 348.39,270.96 387.1,270.96 425.81,270.96 464.52,270.96 
		503.23,270.96 541.94,270.96 580.65,270.96 619.36,270.96 658.07,270.96 696.78,270.96 735.49,270.96 774.19,270.96 812.9,270.96 
		851.61,270.96 851.61,232.26 812.9,232.26 774.19,232.26 735.49,232.26 696.78,232.26 658.07,232.26 619.36,232.26 580.65,232.26 
		541.94,232.26 503.23,232.26 464.52,232.26 425.81,232.26 387.1,232.26 348.39,232.26 309.68,232.26 270.97,232.26 232.26,232.26 
		232.26,270.96 232.26,309.67 232.26,348.38 232.26,387.09 232.26,425.8 232.26,464.51 232.26,503.22 232.26,541.93 232.26,580.64 
		232.26,619.35 232.26,658.06 270.97,658.06 	"/>
	<polygon fill="#BFBFBF" points="270.97,116.13 309.68,116.13 348.39,116.13 387.1,116.13 425.81,116.13 464.52,116.13 
		503.23,116.13 541.94,116.13 580.65,116.13 619.36,116.13 658.07,116.13 696.78,116.13 735.49,116.13 774.19,116.13 812.9,116.13 
		851.61,116.13 890.32,116.13 929.03,116.13 967.74,116.13 967.74,77.42 1006.45,77.42 1006.45,38.71 967.74,38.71 929.03,38.71 
		890.32,38.71 851.61,38.71 812.9,38.71 774.19,38.71 735.49,38.71 696.78,38.71 658.07,38.71 619.36,38.71 580.65,38.71 
		541.94,38.71 503.23,38.71 464.52,38.71 425.81,38.71 387.1,38.71 348.39,38.71 309.68,38.71 270.97,38.71 270.97,77.42 
		232.26,77.42 232.26,116.13 	"/>
	<rect x="232.26" y="38.71" fill="#808080" width="38.71" height="38.71"/>
	<polygon fill="#008102" points="232.26,1045.16 232.26,1006.45 193.55,1006.45 154.84,1006.45 154.84,1045.16 193.55,1045.16 	"/>
	<polygon fill="#29FB24" points="232.26,1006.45 232.26,967.74 193.55,967.74 154.84,967.74 154.84,1006.45 193.55,1006.45 	"/>
	<polygon fill="#FDFDFD" points="232.26,154.84 270.97,154.84 309.68,154.84 348.39,154.84 387.1,154.84 425.81,154.84 
		464.52,154.84 503.23,154.84 541.94,154.84 580.65,154.84 619.36,154.84 658.07,154.84 696.78,154.84 735.49,154.84 774.19,154.84 
		812.9,154.84 851.61,154.84 890.32,154.84 929.03,154.84 967.74,154.84 967.74,116.13 929.03,116.13 890.32,116.13 851.61,116.13 
		812.9,116.13 774.19,116.13 735.49,116.13 696.78,116.13 658.07,116.13 619.36,116.13 580.65,116.13 541.94,116.13 503.23,116.13 
		464.52,116.13 425.81,116.13 387.1,116.13 348.39,116.13 309.68,116.13 270.97,116.13 232.26,116.13 193.55,116.13 193.55,154.84 	
		"/>
	<rect x="193.55" y="77.42" fill="#808080" width="38.71" height="38.71"/>
	<polygon fill="#FDFDFD" points="154.84,232.26 154.84,270.96 154.84,309.67 154.84,348.38 154.84,387.09 154.84,425.8 
		154.84,464.51 154.84,503.22 154.84,541.93 154.84,580.64 154.84,619.35 154.84,658.06 154.84,696.77 154.84,735.48 154.84,774.19 
		193.55,774.19 193.55,735.48 193.55,696.77 193.55,658.06 193.55,619.35 193.55,580.64 193.55,541.93 193.55,503.22 193.55,464.51 
		193.55,425.8 193.55,387.09 193.55,348.38 193.55,309.67 193.55,270.96 193.55,232.26 193.55,193.55 193.55,154.84 154.84,154.84 
		154.84,193.55 	"/>
	<rect x="154.84" y="116.13" fill="#808080" width="38.71" height="38.71"/>
	<polygon fill="#808080" points="116.13,851.61 154.84,851.61 193.55,851.61 232.26,851.61 270.97,851.61 309.68,851.61 
		348.39,851.61 387.1,851.61 425.81,851.61 464.52,851.61 503.23,851.61 541.94,851.61 580.65,851.61 619.36,851.61 658.07,851.61 
		696.78,851.61 735.49,851.61 774.19,851.61 812.9,851.61 851.61,851.61 890.32,851.61 929.03,851.61 967.74,851.61 1006.45,851.61 
		1006.45,812.9 1045.16,812.9 1045.16,774.19 1083.87,774.19 1083.87,735.48 1045.16,735.48 1006.45,735.48 1006.45,774.19 
		967.74,774.19 967.74,812.9 929.03,812.9 890.32,812.9 851.61,812.9 812.9,812.9 774.19,812.9 735.49,812.9 696.78,812.9 
		658.07,812.9 619.36,812.9 580.65,812.9 541.94,812.9 503.23,812.9 464.52,812.9 425.81,812.9 387.1,812.9 348.39,812.9 
		309.68,812.9 270.97,812.9 232.26,812.9 193.55,812.9 154.84,812.9 154.84,774.19 154.84,735.48 154.84,696.77 154.84,658.06 
		154.84,619.35 154.84,580.64 154.84,541.93 154.84,503.22 154.84,464.51 154.84,425.8 154.84,387.09 154.84,348.38 154.84,309.67 
		154.84,270.96 154.84,232.26 154.84,193.55 154.84,154.84 116.13,154.84 116.13,193.55 116.13,232.26 116.13,270.96 116.13,309.67 
		116.13,348.38 116.13,387.09 116.13,425.8 116.13,464.51 116.13,503.22 116.13,541.93 116.13,580.64 116.13,619.35 116.13,658.06 
		116.13,696.77 116.13,735.48 116.13,774.19 116.13,812.9 77.42,812.9 38.71,812.9 38.71,851.61 77.42,851.61 	"/>
	<polygon fill="#FDFDFD" points="77.42,1122.58 77.42,1083.87 77.42,1045.16 77.42,1006.45 77.42,967.74 77.42,929.03 77.42,890.32 
		116.13,890.32 154.84,890.32 193.55,890.32 232.26,890.32 270.97,890.32 309.68,890.32 348.39,890.32 387.1,890.32 425.81,890.32 
		464.52,890.32 503.23,890.32 541.94,890.32 580.65,890.32 619.36,890.32 658.07,890.32 696.78,890.32 735.49,890.32 774.19,890.32 
		812.9,890.32 851.61,890.32 890.32,890.32 929.03,890.32 967.74,890.32 1006.45,890.32 1006.45,851.61 967.74,851.61 
		929.03,851.61 890.32,851.61 851.61,851.61 812.9,851.61 774.19,851.61 735.49,851.61 696.78,851.61 658.07,851.61 619.36,851.61 
		580.65,851.61 541.94,851.61 503.23,851.61 464.52,851.61 425.81,851.61 387.1,851.61 348.39,851.61 309.68,851.61 270.97,851.61 
		232.26,851.61 193.55,851.61 154.84,851.61 116.13,851.61 77.42,851.61 38.71,851.61 38.71,890.32 38.71,929.03 38.71,967.74 
		38.71,1006.45 38.71,1045.16 38.71,1083.87 38.71,1122.58 38.71,1161.29 77.42,1161.29 	"/>
	<polygon fill="#808080" points="38.71,1083.87 38.71,1045.16 38.71,1006.45 38.71,967.74 38.71,929.03 38.71,890.32 38.71,851.61 
		0,851.61 0,890.32 0,929.03 0,967.74 0,1006.45 0,1045.16 0,1083.87 0,1122.58 0,1161.29 38.71,1161.29 38.71,1122.58 	"/>
</g>
</svg>
