<?xml version="1.0" encoding="utf-8"?>
<!-- Generator: Adobe Illustrator 25.2.0, SVG Export Plug-In . SVG Version: 6.00 Build 0)  -->
<svg version="1.1" id="Layer_1" xmlns="http://www.w3.org/2000/svg" xmlns:xlink="http://www.w3.org/1999/xlink" x="0px" y="0px"
	 viewBox="0 0 1200 1200" enable-background="new 0 0 1200 1200" xml:space="preserve">
<g>
	<polygon points="1160.97,348.06 1160.97,386.77 1160.97,425.48 1160.97,464.19 1160.97,502.9 1160.97,541.61 1160.97,580.32 
		1160.97,619.03 1160.97,657.74 1160.97,696.45 1199.68,696.45 1199.68,657.74 1199.68,619.03 1199.68,580.32 1199.68,541.61 
		1199.68,502.9 1199.68,464.19 1199.68,425.48 1199.68,386.77 1199.68,348.06 	"/>
	<polygon points="1122.26,735.16 1122.26,773.87 1160.97,773.87 1160.97,735.16 1160.97,696.45 1122.26,696.45 	"/>
	<polygon fill="#000D7B" points="1160.97,619.03 1160.97,580.32 1160.97,541.61 1160.97,502.9 1160.97,464.19 1122.26,464.19 
		1122.26,425.48 1083.55,425.48 1083.55,464.19 1083.55,502.9 1044.84,502.9 1044.84,541.61 1083.55,541.61 1122.26,541.61 
		1122.26,580.32 1122.26,619.03 1083.55,619.03 1083.55,657.74 1044.84,657.74 1044.84,696.45 1044.84,735.16 1044.84,773.87 
		1044.84,812.58 1044.84,851.29 1083.55,851.29 1083.55,812.58 1083.55,773.87 1122.26,773.87 1122.26,735.16 1122.26,696.45 
		1160.97,696.45 1160.97,657.74 	"/>
	<rect x="1122.26" y="425.48" fill="#377D22" width="38.71" height="38.71"/>
	<rect x="1122.26" y="386.77" fill="#000D7B" width="38.71" height="38.71"/>
	<rect x="1122.26" y="348.06" fill="#377D22" width="38.71" height="38.71"/>
	<polygon points="1122.26,348.06 1160.97,348.06 1160.97,309.35 1160.97,270.65 1122.26,270.65 1122.26,309.35 	"/>
	<polygon points="1083.55,812.58 1083.55,851.29 1122.26,851.29 1122.26,812.58 1122.26,773.87 1083.55,773.87 	"/>
	<rect x="1083.55" y="348.06" fill="#000D7B" width="38.71" height="38.71"/>
	<rect x="1083.55" y="309.35" fill="#377D22" width="38.71" height="38.71"/>
	<rect x="1083.55" y="270.65" fill="#000D7B" width="38.71" height="38.7"/>
	<polygon points="1083.55,270.65 1122.26,270.65 1122.26,231.94 1122.26,193.23 1083.55,193.23 1083.55,231.94 	"/>
	<rect x="1044.84" y="580.32" fill="#000D7B" width="38.71" height="38.71"/>
	<rect x="1044.84" y="309.35" fill="#000D7B" width="38.71" height="38.71"/>
	<rect x="1044.84" y="231.94" fill="#000D7B" width="38.71" height="38.71"/>
	<rect x="1044.84" y="193.23" fill="#377D22" width="38.71" height="38.71"/>
	<rect x="1044.84" y="154.52" width="38.71" height="38.71"/>
	<polygon points="1044.84,812.58 1044.84,773.87 1044.84,735.16 1044.84,696.45 1044.84,657.74 1006.13,657.74 967.42,657.74 
		967.42,696.45 1006.13,696.45 1006.13,735.16 1006.13,773.87 1006.13,812.58 1006.13,851.29 1006.13,890 1006.13,928.71 
		1006.13,967.42 1044.84,967.42 1044.84,928.71 1044.84,890 1083.55,890 1083.55,851.29 1044.84,851.29 	"/>
	<polygon fill="#0026F5" points="1006.13,425.48 1006.13,386.77 967.42,386.77 928.71,386.77 890,386.77 851.29,386.77 
		851.29,425.48 890,425.48 928.71,425.48 967.42,425.48 967.42,464.19 967.42,502.9 928.71,502.9 928.71,541.61 928.71,580.32 
		890,580.32 890,619.03 928.71,619.03 928.71,657.74 967.42,657.74 1006.13,657.74 1044.84,657.74 1083.55,657.74 1083.55,619.03 
		1044.84,619.03 1044.84,580.32 1083.55,580.32 1083.55,619.03 1122.26,619.03 1122.26,580.32 1122.26,541.61 1083.55,541.61 
		1044.84,541.61 1044.84,502.9 1083.55,502.9 1083.55,464.19 1083.55,425.48 1044.84,425.48 	"/>
	<rect x="1006.13" y="193.23" fill="#000D7B" width="38.71" height="38.71"/>
	<rect x="1006.13" y="115.81" fill="#808080" width="38.71" height="38.71"/>
	<polygon fill="#808080" points="1006.13,890 1006.13,851.29 1006.13,812.58 1006.13,773.87 1006.13,735.16 1006.13,696.45 
		967.42,696.45 967.42,657.74 928.71,657.74 928.71,696.45 928.71,735.16 890,735.16 851.29,735.16 851.29,773.87 812.58,773.87 
		773.87,773.87 735.16,773.87 735.16,812.58 696.45,812.58 696.45,851.29 657.74,851.29 619.03,851.29 619.03,890 580.32,890 
		541.61,890 541.61,928.71 541.61,967.42 541.61,1006.13 541.61,1044.84 541.61,1083.55 541.61,1122.26 541.61,1160.97 
		580.32,1160.97 619.03,1160.97 619.03,1122.26 657.74,1122.26 696.45,1122.26 696.45,1083.55 735.16,1083.55 773.87,1083.55 
		773.87,1044.84 812.58,1044.84 851.29,1044.84 851.29,1006.13 890,1006.13 928.71,1006.13 928.71,967.42 967.42,967.42 
		1006.13,967.42 1006.13,928.71 	"/>
	<polygon points="928.71,967.42 928.71,1006.13 967.42,1006.13 1006.13,1006.13 1006.13,967.42 967.42,967.42 	"/>
	<polygon fill="#808080" points="967.42,115.81 1006.13,115.81 1006.13,77.1 967.42,77.1 928.71,77.1 928.71,115.81 	"/>
	<rect x="890" y="696.45" fill="#FFFFFF" width="38.71" height="38.71"/>
	<rect x="890" y="619.03" fill="#808080" width="38.71" height="38.71"/>
	<polygon fill="#000D7B" points="928.71,464.19 928.71,502.9 967.42,502.9 967.42,464.19 967.42,425.48 928.71,425.48 890,425.48 
		890,464.19 	"/>
	<polygon points="851.29,1006.13 851.29,1044.84 890,1044.84 928.71,1044.84 928.71,1006.13 890,1006.13 	"/>
	<polygon points="890,619.03 851.29,619.03 851.29,657.74 851.29,696.45 812.58,696.45 773.87,696.45 773.87,735.16 735.16,735.16 
		735.16,773.87 773.87,773.87 812.58,773.87 812.58,735.16 851.29,735.16 890,735.16 890,696.45 928.71,696.45 928.71,657.74 
		890,657.74 	"/>
	<polygon fill="#377D22" points="851.29,502.9 851.29,541.61 851.29,580.32 890,580.32 928.71,580.32 928.71,541.61 928.71,502.9 
		928.71,464.19 890,464.19 890,425.48 851.29,425.48 851.29,464.19 	"/>
	<polygon fill="#0026F5" points="851.29,348.06 890,348.06 890,309.35 890,270.65 851.29,270.65 851.29,309.35 	"/>
	<polygon fill="#377D22" points="851.29,77.1 812.58,77.1 773.87,77.1 773.87,115.81 773.87,154.52 773.87,193.23 812.58,193.23 
		812.58,231.94 851.29,231.94 851.29,270.65 890,270.65 890,309.35 890,348.06 851.29,348.06 851.29,386.77 890,386.77 
		928.71,386.77 967.42,386.77 1006.13,386.77 1006.13,425.48 1044.84,425.48 1083.55,425.48 1122.26,425.48 1122.26,386.77 
		1083.55,386.77 1083.55,348.06 1044.84,348.06 1044.84,309.35 1083.55,309.35 1083.55,270.65 1044.84,270.65 1044.84,231.94 
		1006.13,231.94 1006.13,193.23 1044.84,193.23 1044.84,154.52 1006.13,154.52 1006.13,115.81 967.42,115.81 928.71,115.81 
		928.71,77.1 890,77.1 	"/>
	<rect x="812.58" y="735.16" fill="#FFFFFF" width="38.71" height="38.71"/>
	<polygon fill="#808080" points="812.58,309.35 812.58,348.06 812.58,386.77 812.58,425.48 812.58,464.19 812.58,502.9 
		812.58,541.61 812.58,580.32 812.58,619.03 812.58,657.74 812.58,696.45 851.29,696.45 851.29,657.74 851.29,619.03 890,619.03 
		890,580.32 851.29,580.32 851.29,541.61 851.29,502.9 851.29,464.19 851.29,425.48 851.29,386.77 851.29,348.06 851.29,309.35 
		851.29,270.65 851.29,231.94 812.58,231.94 812.58,270.65 	"/>
	<polygon fill="#808080" points="851.29,77.1 890,77.1 928.71,77.1 928.71,38.39 890,38.39 851.29,38.39 812.58,38.39 812.58,77.1 	
		"/>
	<polygon points="773.87,1044.84 773.87,1083.55 812.58,1083.55 851.29,1083.55 851.29,1044.84 812.58,1044.84 	"/>
	<polygon fill="#C0C0C0" points="773.87,270.65 773.87,309.35 773.87,348.06 773.87,386.77 773.87,425.48 773.87,464.19 
		773.87,502.9 773.87,541.61 773.87,580.32 773.87,619.03 773.87,657.74 773.87,696.45 812.58,696.45 812.58,657.74 812.58,619.03 
		812.58,580.32 812.58,541.61 812.58,502.9 812.58,464.19 812.58,425.48 812.58,386.77 812.58,348.06 812.58,309.35 812.58,270.65 
		812.58,231.94 812.58,193.23 773.87,193.23 773.87,231.94 	"/>
	<polygon fill="#808080" points="773.87,619.03 773.87,580.32 773.87,541.61 773.87,502.9 773.87,464.19 773.87,425.48 
		773.87,386.77 773.87,348.06 773.87,309.35 773.87,270.65 735.16,270.65 735.16,309.35 735.16,348.06 735.16,386.77 735.16,425.48 
		735.16,464.19 735.16,502.9 735.16,541.61 735.16,580.32 735.16,619.03 735.16,657.74 735.16,696.45 735.16,735.16 773.87,735.16 
		773.87,696.45 773.87,657.74 	"/>
	<rect x="735.16" y="231.94" fill="#FFFFFF" width="38.71" height="38.71"/>
	<rect x="735.16" y="193.23" fill="#808080" width="38.71" height="38.71"/>
	<rect x="735.16" y="154.52" fill="#C0C0C0" width="38.71" height="38.71"/>
	<polygon fill="#367E7F" points="735.16,38.39 735.16,77.1 773.87,77.1 812.58,77.1 812.58,38.39 773.87,38.39 	"/>
	<polygon points="696.45,1083.55 696.45,1122.26 735.16,1122.26 773.87,1122.26 773.87,1083.55 735.16,1083.55 	"/>
	<rect x="696.45" y="773.87" fill="#FFFFFF" width="38.71" height="38.71"/>
	<polygon fill="#C0C0C0" points="735.16,696.45 735.16,657.74 735.16,619.03 735.16,580.32 735.16,541.61 735.16,502.9 
		735.16,464.19 735.16,425.48 735.16,386.77 735.16,348.06 735.16,309.35 735.16,270.65 696.45,270.65 696.45,309.35 657.74,309.35 
		657.74,348.06 657.74,386.77 657.74,425.48 657.74,464.19 657.74,502.9 657.74,541.61 657.74,580.32 657.74,619.03 657.74,657.74 
		657.74,696.45 657.74,735.16 657.74,773.87 657.74,812.58 696.45,812.58 696.45,773.87 735.16,773.87 735.16,735.16 	"/>
	<rect x="696.45" y="231.94" fill="#808080" width="38.71" height="38.71"/>
	<rect x="696.45" y="193.23" fill="#C0C0C0" width="38.71" height="38.71"/>
	<rect x="696.45" y="154.52" fill="#808080" width="38.71" height="38.71"/>
	<polygon fill="#0026F5" points="696.45,115.81 696.45,154.52 735.16,154.52 773.87,154.52 773.87,115.81 773.87,77.1 735.16,77.1 
		735.16,115.81 	"/>
	<rect x="696.45" y="77.1" fill="#367E7F" width="38.71" height="38.71"/>
	<rect x="696.45" y="38.39" fill="#FFFFFF" width="38.71" height="38.71"/>
	<rect x="657.74" y="812.58" fill="#FFFFFF" width="38.71" height="38.71"/>
	<rect x="657.74" y="270.65" fill="#808080" width="38.71" height="38.7"/>
	<rect x="657.74" y="231.94" fill="#FFFFFF" width="38.71" height="38.71"/>
	<rect x="657.74" y="193.23" fill="#808080" width="38.71" height="38.71"/>
	<rect x="657.74" y="154.52" fill="#C0C0C0" width="38.71" height="38.71"/>
	<rect x="657.74" y="115.81" fill="#808080" width="38.71" height="38.71"/>
	<polygon fill="#377D22" points="657.74,115.81 696.45,115.81 696.45,77.1 696.45,38.39 657.74,38.39 657.74,77.1 	"/>
	<polygon points="619.03,1122.26 619.03,1160.97 657.74,1160.97 696.45,1160.97 696.45,1122.26 657.74,1122.26 	"/>
	<polygon fill="#C0C0C0" points="619.03,812.58 580.32,812.58 580.32,851.29 619.03,851.29 657.74,851.29 657.74,812.58 	"/>
	<rect x="619.03" y="270.65" fill="#C0C0C0" width="38.71" height="38.7"/>
	<rect x="619.03" y="231.94" fill="#808080" width="38.71" height="38.71"/>
	<rect x="619.03" y="193.23" fill="#C0C0C0" width="38.71" height="38.71"/>
	<rect x="619.03" y="154.52" fill="#808080" width="38.71" height="38.71"/>
	<rect x="619.03" y="115.81" fill="#C0C0C0" width="38.71" height="38.71"/>
	<rect x="619.03" y="77.1" fill="#808080" width="38.71" height="38.71"/>
	<rect x="619.03" y="38.39" fill="#FFFFFF" width="38.71" height="38.71"/>
	<rect x="580.32" y="851.29" fill="#FFFFFF" width="38.71" height="38.71"/>
	<polygon fill="#0026F5" points="619.03,735.16 619.03,696.45 619.03,657.74 619.03,619.03 619.03,580.32 619.03,541.61 
		619.03,502.9 619.03,464.19 580.32,464.19 580.32,502.9 580.32,541.61 580.32,580.32 580.32,619.03 580.32,657.74 580.32,696.45 
		580.32,735.16 580.32,773.87 580.32,812.58 619.03,812.58 619.03,773.87 	"/>
	<polygon fill="#C0C0C0" points="580.32,231.94 541.61,231.94 541.61,270.65 580.32,270.65 619.03,270.65 619.03,231.94 	"/>
	<polygon fill="#808080" points="619.03,231.94 619.03,193.23 580.32,193.23 541.61,193.23 541.61,231.94 580.32,231.94 	"/>
	<rect x="580.32" y="115.81" fill="#808080" width="38.71" height="38.71"/>
	<rect x="580.32" y="77.1" fill="#C0C0C0" width="38.71" height="38.71"/>
	<polygon fill="#808080" points="619.03,77.1 619.03,38.39 657.74,38.39 696.45,38.39 735.16,38.39 773.87,38.39 812.58,38.39 
		812.58,-0.32 773.87,-0.32 735.16,-0.32 696.45,-0.32 657.74,-0.32 619.03,-0.32 580.32,-0.32 580.32,38.39 580.32,77.1 	"/>
	<polygon points="541.61,1160.97 502.9,1160.97 502.9,1199.68 541.61,1199.68 580.32,1199.68 619.03,1199.68 619.03,1160.97 
		580.32,1160.97 	"/>
	<path fill="#FFFFFF" d="M580.32,773.87v-38.71v-38.71v-38.71v-38.71v-38.71v-38.71V502.9v-38.71h38.71v38.71v38.71v38.71v38.71
		v38.71v38.71v38.71v38.71v38.71h38.71v-38.71v-38.71v-38.71v-38.71v-38.71v-38.71v-38.71V502.9v-38.71v-38.71v-38.71v-38.71v-38.71
		h-38.71v-38.7h-38.71h-38.71v-38.71H502.9h-38.71v-38.71h-38.71v-38.71h-38.71v-38.71h-38.71V77.1h-38.71h-38.7h-38.71v38.71v38.71
		v38.71v38.71v38.71v38.7v38.71v38.71v38.71v38.71v38.71v38.71v38.71v38.71v38.71v38.71v38.71v38.71v38.71v38.71V890h38.71h38.7
		h38.71v-38.71v-38.71v-38.71v-38.71v-38.71v-38.71v-38.71v-38.71h38.71v38.71v38.71v38.71v38.71v38.71v38.71h38.71h38.71h38.71
		v38.71h38.71h38.71v-38.71V773.87z M270.65,270.65v-38.71v-38.71v-38.71h38.7h38.71v38.71h38.71v38.71v38.71v38.7v38.71h-38.71
		h-38.71v-38.71h-38.7V270.65z M309.35,657.74v38.71v38.71v38.71v38.71v38.71h-38.7v-38.71v-38.71v-38.71v-38.71v-38.71v-38.71h38.7
		V657.74z M425.48,696.45v-38.71v-38.71v-38.71v-38.71V502.9v-38.71v-38.71v-38.71v-38.71h38.71v38.71v38.71v38.71v38.71v38.71
		v38.71v38.71v38.71v38.71v38.71h-38.71V696.45z M502.9,735.16v-38.71v-38.71v-38.71v-38.71v-38.71V502.9v-38.71v-38.71h38.71v38.71
		v38.71v38.71v38.71v38.71v38.71v38.71v38.71v38.71H502.9V735.16z"/>
	<polygon fill="#C0C0C0" points="580.32,193.23 619.03,193.23 619.03,154.52 580.32,154.52 541.61,154.52 541.61,193.23 	"/>
	<rect x="541.61" y="115.81" fill="#FFFFFF" width="38.71" height="38.71"/>
	<rect x="541.61" y="77.1" fill="#808080" width="38.71" height="38.71"/>
	<rect x="541.61" y="38.39" fill="#367E7F" width="38.71" height="38.71"/>
	<polygon fill="#C0C0C0" points="541.61,1122.26 541.61,1083.55 541.61,1044.84 541.61,1006.13 541.61,967.42 541.61,928.71 
		541.61,890 580.32,890 580.32,851.29 541.61,851.29 502.9,851.29 502.9,890 464.19,890 425.48,890 386.77,890 386.77,851.29 
		348.06,851.29 348.06,890 309.35,890 270.65,890 231.94,890 193.23,890 193.23,851.29 193.23,812.58 193.23,773.87 193.23,735.16 
		193.23,696.45 154.52,696.45 115.81,696.45 115.81,657.74 115.81,619.03 77.1,619.03 77.1,657.74 38.39,657.74 38.39,696.45 
		38.39,735.16 38.39,773.87 38.39,812.58 38.39,851.29 38.39,890 38.39,928.71 77.1,928.71 115.81,928.71 115.81,967.42 
		154.52,967.42 193.23,967.42 193.23,1006.13 231.94,1006.13 270.65,1006.13 270.65,1044.84 309.35,1044.84 348.06,1044.84 
		348.06,1083.55 386.77,1083.55 425.48,1083.55 425.48,1122.26 464.19,1122.26 502.9,1122.26 502.9,1160.97 541.61,1160.97 	"/>
	<polygon fill="#0026F5" points="541.61,735.16 541.61,696.45 541.61,657.74 541.61,619.03 541.61,580.32 541.61,541.61 
		541.61,502.9 541.61,464.19 541.61,425.48 502.9,425.48 502.9,464.19 502.9,502.9 502.9,541.61 502.9,580.32 502.9,619.03 
		502.9,657.74 502.9,696.45 502.9,735.16 502.9,773.87 541.61,773.87 	"/>
	<polygon fill="#C0C0C0" points="502.9,193.23 464.19,193.23 464.19,231.94 502.9,231.94 541.61,231.94 541.61,193.23 	"/>
	<polygon fill="#808080" points="541.61,193.23 541.61,154.52 502.9,154.52 464.19,154.52 464.19,193.23 502.9,193.23 	"/>
	<polygon points="464.19,1122.26 425.48,1122.26 425.48,1160.97 464.19,1160.97 502.9,1160.97 502.9,1122.26 	"/>
	<polygon fill="#C0C0C0" points="464.19,812.58 425.48,812.58 386.77,812.58 386.77,851.29 425.48,851.29 464.19,851.29 
		502.9,851.29 502.9,812.58 	"/>
	<polygon fill="#C0C0C0" points="464.19,154.52 502.9,154.52 541.61,154.52 541.61,115.81 541.61,77.1 502.9,77.1 464.19,77.1 
		464.19,115.81 	"/>
	<polygon fill="#808080" points="502.9,77.1 541.61,77.1 541.61,38.39 502.9,38.39 464.19,38.39 464.19,77.1 	"/>
	<polygon fill="#808080" points="464.19,38.39 464.19,-0.32 425.48,-0.32 386.77,-0.32 386.77,38.39 425.48,38.39 	"/>
	<polygon fill="#FFFFFF" points="425.48,851.29 386.77,851.29 386.77,890 425.48,890 464.19,890 502.9,890 502.9,851.29 
		464.19,851.29 	"/>
	<polygon fill="#0026F5" points="464.19,696.45 464.19,657.74 464.19,619.03 464.19,580.32 464.19,541.61 464.19,502.9 
		464.19,464.19 464.19,425.48 464.19,386.77 464.19,348.06 425.48,348.06 425.48,386.77 425.48,425.48 425.48,464.19 425.48,502.9 
		425.48,541.61 425.48,580.32 425.48,619.03 425.48,657.74 425.48,696.45 425.48,735.16 464.19,735.16 	"/>
	<rect x="425.48" y="154.52" fill="#C0C0C0" width="38.71" height="38.71"/>
	<rect x="425.48" y="115.81" fill="#808080" width="38.71" height="38.71"/>
	<rect x="425.48" y="77.1" fill="#FFFFFF" width="38.71" height="38.71"/>
	<polygon points="386.77,1083.55 348.06,1083.55 348.06,1122.26 386.77,1122.26 425.48,1122.26 425.48,1083.55 	"/>
	<rect x="386.77" y="115.81" fill="#C0C0C0" width="38.71" height="38.71"/>
	<rect x="386.77" y="77.1" fill="#808080" width="38.71" height="38.71"/>
	<polygon fill="#C0C0C0" points="425.48,77.1 464.19,77.1 464.19,38.39 425.48,38.39 386.77,38.39 386.77,77.1 	"/>
	<polygon fill="#0026F5" points="386.77,773.87 386.77,735.16 386.77,696.45 386.77,657.74 386.77,619.03 386.77,580.32 
		348.06,580.32 348.06,619.03 348.06,657.74 348.06,696.45 348.06,735.16 348.06,773.87 348.06,812.58 348.06,851.29 386.77,851.29 
		386.77,812.58 	"/>
	<rect x="348.06" y="309.35" fill="#75140C" width="38.71" height="38.71"/>
	<rect x="348.06" y="270.65" fill="#EB3223" width="38.71" height="38.7"/>
	<rect x="348.06" y="231.94" fill="#75140C" width="38.71" height="38.71"/>
	<rect x="348.06" y="193.23" fill="#EB3223" width="38.71" height="38.71"/>
	<rect x="348.06" y="77.1" fill="#C0C0C0" width="38.71" height="38.71"/>
	<rect x="348.06" y="38.39" fill="#808080" width="38.71" height="38.71"/>
	<polygon points="309.35,1044.84 270.65,1044.84 270.65,1083.55 309.35,1083.55 348.06,1083.55 348.06,1044.84 	"/>
	<rect x="309.35" y="309.35" fill="#EB3223" width="38.71" height="38.71"/>
	<rect x="309.35" y="270.65" fill="#75140C" width="38.71" height="38.7"/>
	<rect x="309.35" y="231.94" fill="#EB3223" width="38.71" height="38.71"/>
	<rect x="309.35" y="193.23" fill="#75140C" width="38.71" height="38.71"/>
	<rect x="309.35" y="154.52" fill="#EB3223" width="38.71" height="38.71"/>
	<rect x="309.35" y="38.39" fill="#C0C0C0" width="38.71" height="38.71"/>
	<polygon fill="#0026F5" points="270.65,657.74 270.65,696.45 270.65,735.16 270.65,773.87 270.65,812.58 270.65,851.29 
		309.35,851.29 309.35,812.58 309.35,773.87 309.35,735.16 309.35,696.45 309.35,657.74 309.35,619.03 270.65,619.03 	"/>
	<rect x="270.65" y="270.65" fill="#EB3223" width="38.7" height="38.7"/>
	<rect x="270.65" y="231.94" fill="#75140C" width="38.7" height="38.71"/>
	<rect x="270.65" y="193.23" fill="#EB3223" width="38.7" height="38.71"/>
	<rect x="270.65" y="154.52" fill="#75140C" width="38.7" height="38.71"/>
	<polygon points="231.94,1006.13 193.23,1006.13 193.23,1044.84 231.94,1044.84 270.65,1044.84 270.65,1006.13 	"/>
	<polygon points="154.52,967.42 115.81,967.42 115.81,1006.13 154.52,1006.13 193.23,1006.13 193.23,967.42 	"/>
	<polygon fill="#808080" points="193.23,580.32 193.23,619.03 154.52,619.03 115.81,619.03 115.81,657.74 115.81,696.45 
		154.52,696.45 193.23,696.45 193.23,735.16 193.23,773.87 193.23,812.58 193.23,851.29 193.23,890 231.94,890 231.94,851.29 
		231.94,812.58 231.94,773.87 231.94,735.16 231.94,696.45 231.94,657.74 231.94,619.03 231.94,580.32 231.94,541.61 231.94,502.9 
		231.94,464.19 231.94,425.48 231.94,386.77 231.94,348.06 231.94,309.35 231.94,270.65 231.94,231.94 231.94,193.23 231.94,154.52 
		231.94,115.81 231.94,77.1 270.65,77.1 309.35,77.1 309.35,38.39 348.06,38.39 348.06,-0.32 309.35,-0.32 270.65,-0.32 
		270.65,38.39 231.94,38.39 193.23,38.39 193.23,77.1 193.23,115.81 193.23,154.52 193.23,193.23 193.23,231.94 193.23,270.65 
		154.52,270.65 154.52,309.35 193.23,309.35 193.23,348.06 193.23,386.77 193.23,425.48 193.23,464.19 193.23,502.9 193.23,541.61 
		154.52,541.61 154.52,502.9 154.52,464.19 154.52,425.48 154.52,386.77 154.52,348.06 154.52,309.35 115.81,309.35 115.81,348.06 
		115.81,386.77 115.81,425.48 115.81,464.19 115.81,502.9 115.81,541.61 115.81,580.32 154.52,580.32 	"/>
	<rect x="154.52" y="502.9" fill="#367E7F" width="38.71" height="38.71"/>
	<rect x="154.52" y="464.19" fill="#FFFFFF" width="38.71" height="38.71"/>
	<rect x="154.52" y="425.48" fill="#367E7F" width="38.71" height="38.71"/>
	<polygon fill="#FFFFFF" points="154.52,386.77 154.52,425.48 193.23,425.48 193.23,386.77 193.23,348.06 193.23,309.35 
		154.52,309.35 154.52,348.06 	"/>
	<polygon fill="#FFFFFF" points="154.52,619.03 193.23,619.03 193.23,580.32 154.52,580.32 115.81,580.32 115.81,619.03 	"/>
	<polygon points="77.1,928.71 38.39,928.71 38.39,967.42 77.1,967.42 115.81,967.42 115.81,928.71 	"/>
	<rect x="77.1" y="580.32" fill="#808080" width="38.71" height="38.71"/>
	<polygon fill="#808080" points="38.39,851.29 38.39,812.58 38.39,773.87 38.39,735.16 38.39,696.45 38.39,657.74 77.1,657.74 
		77.1,619.03 38.39,619.03 -0.32,619.03 -0.32,657.74 -0.32,696.45 -0.32,735.16 -0.32,773.87 -0.32,812.58 -0.32,851.29 -0.32,890 
		-0.32,928.71 38.39,928.71 38.39,890 	"/>
</g>
</svg>
