<?xml version="1.0" encoding="utf-8"?>
<!-- Generator: Adobe Illustrator 25.2.0, SVG Export Plug-In . SVG Version: 6.00 Build 0)  -->
<svg version="1.1" id="Layer_1" xmlns="http://www.w3.org/2000/svg" xmlns:xlink="http://www.w3.org/1999/xlink" x="0px" y="0px"
	 viewBox="0 0 1200 1200" enable-background="new 0 0 1200 1200" xml:space="preserve">
<g>
	<polygon fill="#0026F5" points="1160.97,1006.13 1122.26,1006.13 1083.55,1006.13 1044.84,1006.13 1044.84,1044.84 
		1006.13,1044.84 967.42,1044.84 928.71,1044.84 928.71,1083.55 890,1083.55 851.29,1083.55 812.58,1083.55 773.87,1083.55 
		735.16,1083.55 735.16,1122.26 696.45,1122.26 657.74,1122.26 619.03,1122.26 619.03,1160.97 619.03,1199.68 657.74,1199.68 
		696.45,1199.68 735.16,1199.68 773.87,1199.68 812.58,1199.68 851.29,1199.68 890,1199.68 928.71,1199.68 967.42,1199.68 
		1006.13,1199.68 1044.84,1199.68 1083.55,1199.68 1122.26,1199.68 1160.97,1199.68 1199.68,1199.68 1199.68,1160.97 
		1199.68,1122.26 1199.68,1083.55 1199.68,1044.84 1199.68,1006.13 1199.68,967.42 1160.97,967.42 	"/>
	<rect x="1160.97" y="928.71" width="38.71" height="38.71"/>
	<rect x="1160.97" y="696.45" width="38.71" height="38.71"/>
	<rect x="1122.26" y="735.16" width="38.71" height="38.71"/>
	<rect x="1122.26" y="657.74" width="38.71" height="38.71"/>
	<rect x="1083.55" y="773.87" width="38.71" height="38.71"/>
	<rect x="1083.55" y="619.03" width="38.71" height="38.71"/>
	<polygon points="1083.55,928.71 1122.26,928.71 1160.97,928.71 1160.97,890 1122.26,890 1083.55,890 1044.84,890 1044.84,928.71 	
		"/>
	<rect x="1044.84" y="812.58" width="38.71" height="38.71"/>
	<rect x="1044.84" y="580.32" width="38.71" height="38.71"/>
	<polygon points="1006.13,851.29 967.42,851.29 967.42,890 1006.13,890 1044.84,890 1044.84,851.29 	"/>
	<rect x="1006.13" y="541.61" width="38.71" height="38.71"/>
	<polygon fill="#000D7B" points="967.42,890 967.42,928.71 928.71,928.71 928.71,967.42 890,967.42 851.29,967.42 851.29,1006.13 
		812.58,1006.13 773.87,1006.13 773.87,1044.84 735.16,1044.84 696.45,1044.84 696.45,1083.55 657.74,1083.55 657.74,1122.26 
		696.45,1122.26 735.16,1122.26 735.16,1083.55 773.87,1083.55 812.58,1083.55 851.29,1083.55 890,1083.55 928.71,1083.55 
		928.71,1044.84 967.42,1044.84 1006.13,1044.84 1044.84,1044.84 1044.84,1006.13 1083.55,1006.13 1122.26,1006.13 1160.97,1006.13 
		1160.97,967.42 1160.97,928.71 1122.26,928.71 1083.55,928.71 1044.84,928.71 1044.84,890 1006.13,890 	"/>
	<polygon fill="#0026F5" points="967.42,580.32 967.42,619.03 967.42,657.74 928.71,657.74 928.71,696.45 928.71,735.16 
		928.71,773.87 928.71,812.58 890,812.58 890,851.29 890,890 851.29,890 851.29,928.71 890,928.71 928.71,928.71 928.71,890 
		967.42,890 967.42,851.29 1006.13,851.29 1044.84,851.29 1044.84,812.58 1083.55,812.58 1083.55,773.87 1122.26,773.87 
		1122.26,735.16 1160.97,735.16 1160.97,696.45 1122.26,696.45 1122.26,657.74 1083.55,657.74 1083.55,619.03 1044.84,619.03 
		1044.84,580.32 1006.13,580.32 	"/>
	<rect x="967.42" y="502.9" width="38.71" height="38.71"/>
	<polygon points="967.42,348.06 967.42,386.77 967.42,425.48 1006.13,425.48 1006.13,386.77 1006.13,348.06 1006.13,309.35 
		1006.13,270.65 967.42,270.65 967.42,309.35 	"/>
	<rect x="928.71" y="890" width="38.71" height="38.71"/>
	<polygon fill="#000D7B" points="928.71,541.61 928.71,580.32 890,580.32 890,619.03 851.29,619.03 851.29,657.74 851.29,696.45 
		851.29,735.16 812.58,735.16 812.58,773.87 812.58,812.58 812.58,851.29 773.87,851.29 773.87,890 773.87,928.71 735.16,928.71 
		735.16,967.42 696.45,967.42 696.45,1006.13 735.16,1006.13 773.87,1006.13 773.87,967.42 812.58,967.42 812.58,928.71 
		851.29,928.71 851.29,890 890,890 890,851.29 890,812.58 928.71,812.58 928.71,773.87 928.71,735.16 928.71,696.45 928.71,657.74 
		967.42,657.74 967.42,619.03 967.42,580.32 1006.13,580.32 1006.13,541.61 967.42,541.61 967.42,502.9 928.71,502.9 	"/>
	<polygon points="928.71,464.19 928.71,502.9 967.42,502.9 967.42,464.19 967.42,425.48 928.71,425.48 	"/>
	<rect x="928.71" y="231.94" width="38.71" height="38.71"/>
	<polygon points="928.71,541.61 928.71,502.9 890,502.9 890,541.61 890,580.32 928.71,580.32 	"/>
	<rect x="890" y="193.23" width="38.71" height="38.71"/>
	<polygon points="851.29,928.71 851.29,967.42 890,967.42 928.71,967.42 928.71,928.71 890,928.71 	"/>
	<rect x="851.29" y="580.32" width="38.71" height="38.71"/>
	<rect x="812.58" y="928.71" fill="#0026F5" width="38.71" height="38.71"/>
	<polygon points="773.87,967.42 773.87,1006.13 812.58,1006.13 851.29,1006.13 851.29,967.42 812.58,967.42 	"/>
	<polygon fill="#000D7B" points="773.87,231.94 773.87,270.65 773.87,309.35 773.87,348.06 773.87,386.77 735.16,386.77 
		735.16,425.48 735.16,464.19 773.87,464.19 773.87,425.48 812.58,425.48 812.58,386.77 812.58,348.06 812.58,309.35 812.58,270.65 
		812.58,231.94 812.58,193.23 773.87,193.23 	"/>
	<polygon points="735.16,890 735.16,928.71 773.87,928.71 773.87,890 773.87,851.29 735.16,851.29 	"/>
	<polygon points="773.87,696.45 773.87,735.16 773.87,773.87 773.87,812.58 773.87,851.29 812.58,851.29 812.58,812.58 
		812.58,773.87 812.58,735.16 851.29,735.16 851.29,696.45 851.29,657.74 851.29,619.03 812.58,619.03 812.58,657.74 773.87,657.74 
		735.16,657.74 696.45,657.74 696.45,696.45 735.16,696.45 	"/>
	<rect x="735.16" y="348.06" fill="#FCFCFC" width="38.71" height="38.71"/>
	<polygon points="735.16,154.52 735.16,193.23 735.16,231.94 735.16,270.65 735.16,309.35 735.16,348.06 773.87,348.06 
		773.87,309.35 773.87,270.65 773.87,231.94 773.87,193.23 812.58,193.23 851.29,193.23 890,193.23 890,154.52 851.29,154.52 
		812.58,154.52 773.87,154.52 773.87,115.81 773.87,77.1 735.16,77.1 735.16,115.81 	"/>
	<polygon points="696.45,1006.13 696.45,1044.84 735.16,1044.84 773.87,1044.84 773.87,1006.13 735.16,1006.13 	"/>
	<rect x="696.45" y="928.71" width="38.71" height="38.71"/>
	<rect x="696.45" y="425.48" fill="#FCFCFC" width="38.71" height="38.71"/>
	<polygon points="735.16,386.77 735.16,348.06 696.45,348.06 657.74,348.06 619.03,348.06 619.03,386.77 657.74,386.77 
		696.45,386.77 696.45,425.48 735.16,425.48 	"/>
	<rect x="696.45" y="309.35" fill="#FCFCFC" width="38.71" height="38.71"/>
	<rect x="696.45" y="38.39" width="38.71" height="38.71"/>
	<rect x="657.74" y="1044.84" width="38.71" height="38.71"/>
	<rect x="657.74" y="1006.13" fill="#000D7B" width="38.71" height="38.71"/>
	<rect x="657.74" y="967.42" width="38.71" height="38.71"/>
	<polygon fill="#000D7B" points="657.74,464.19 657.74,502.9 619.03,502.9 619.03,541.61 657.74,541.61 696.45,541.61 696.45,502.9 
		735.16,502.9 735.16,464.19 696.45,464.19 	"/>
	<rect x="657.74" y="386.77" fill="#FCFCFC" width="38.71" height="38.71"/>
	<polygon fill="#000D7B" points="696.45,348.06 696.45,309.35 657.74,309.35 619.03,309.35 619.03,348.06 657.74,348.06 	"/>
	<polygon fill="#000D7B" points="657.74,77.1 657.74,115.81 696.45,115.81 696.45,154.52 696.45,193.23 696.45,231.94 
		696.45,270.65 696.45,309.35 735.16,309.35 735.16,270.65 735.16,231.94 735.16,193.23 735.16,154.52 735.16,115.81 735.16,77.1 
		696.45,77.1 	"/>
	<rect x="619.03" y="1044.84" fill="#000D7B" width="38.71" height="38.71"/>
	<rect x="619.03" y="1006.13" width="38.71" height="38.71"/>
	<polygon fill="#BFBFBF" points="657.74,1006.13 657.74,967.42 696.45,967.42 696.45,928.71 735.16,928.71 735.16,890 
		735.16,851.29 773.87,851.29 773.87,812.58 773.87,773.87 773.87,735.16 773.87,696.45 735.16,696.45 696.45,696.45 696.45,735.16 
		696.45,773.87 657.74,773.87 619.03,773.87 580.32,773.87 541.61,773.87 502.9,773.87 502.9,812.58 502.9,851.29 502.9,890 
		541.61,890 580.32,890 580.32,928.71 541.61,928.71 502.9,928.71 464.19,928.71 464.19,890 464.19,851.29 464.19,812.58 
		425.48,812.58 386.77,812.58 348.06,812.58 348.06,851.29 348.06,890 386.77,890 386.77,928.71 386.77,967.42 425.48,967.42 
		425.48,1006.13 464.19,1006.13 464.19,1044.84 464.19,1083.55 502.9,1083.55 541.61,1083.55 580.32,1083.55 580.32,1044.84 
		619.03,1044.84 619.03,1006.13 	"/>
	<polygon points="657.74,735.16 657.74,773.87 696.45,773.87 696.45,735.16 696.45,696.45 657.74,696.45 619.03,696.45 
		580.32,696.45 580.32,735.16 619.03,735.16 	"/>
	<polygon fill="#0026F5" points="657.74,309.35 696.45,309.35 696.45,270.65 696.45,231.94 696.45,193.23 696.45,154.52 
		696.45,115.81 657.74,115.81 657.74,154.52 619.03,154.52 619.03,193.23 580.32,193.23 580.32,231.94 580.32,270.65 580.32,309.35 
		619.03,309.35 	"/>
	<rect x="619.03" y="115.81" fill="#000D7B" width="38.71" height="38.71"/>
	<polygon points="619.03,1122.26 657.74,1122.26 657.74,1083.55 619.03,1083.55 619.03,1044.84 580.32,1044.84 580.32,1083.55 
		541.61,1083.55 502.9,1083.55 464.19,1083.55 464.19,1122.26 502.9,1122.26 541.61,1122.26 541.61,1160.97 541.61,1199.68 
		580.32,1199.68 619.03,1199.68 619.03,1160.97 	"/>
	<polygon fill="#FCFCFC" points="619.03,773.87 657.74,773.87 657.74,735.16 619.03,735.16 580.32,735.16 580.32,773.87 	"/>
	<rect x="580.32" y="309.35" width="38.71" height="38.71"/>
	<rect x="580.32" y="154.52" width="38.71" height="38.71"/>
	<polygon fill="#000D7B" points="541.61,541.61 502.9,541.61 464.19,541.61 425.48,541.61 386.77,541.61 348.06,541.61 
		348.06,580.32 386.77,580.32 425.48,580.32 464.19,580.32 502.9,580.32 541.61,580.32 580.32,580.32 619.03,580.32 619.03,541.61 
		580.32,541.61 	"/>
	<polygon points="580.32,231.94 580.32,193.23 541.61,193.23 541.61,231.94 541.61,270.65 541.61,309.35 580.32,309.35 
		580.32,270.65 	"/>
	<polygon points="541.61,38.39 580.32,38.39 619.03,38.39 657.74,38.39 696.45,38.39 696.45,-0.32 657.74,-0.32 619.03,-0.32 
		580.32,-0.32 541.61,-0.32 502.9,-0.32 464.19,-0.32 464.19,38.39 502.9,38.39 	"/>
	<polygon fill="#000D7B" points="541.61,1122.26 502.9,1122.26 464.19,1122.26 464.19,1083.55 425.48,1083.55 386.77,1083.55 
		348.06,1083.55 309.35,1083.55 309.35,1044.84 270.65,1044.84 231.94,1044.84 193.23,1044.84 193.23,1083.55 154.52,1083.55 
		154.52,1122.26 193.23,1122.26 231.94,1122.26 270.65,1122.26 309.35,1122.26 309.35,1160.97 348.06,1160.97 386.77,1160.97 
		425.48,1160.97 464.19,1160.97 464.19,1199.68 502.9,1199.68 541.61,1199.68 541.61,1160.97 	"/>
	<polygon fill="#0026F5" points="425.48,1160.97 386.77,1160.97 348.06,1160.97 309.35,1160.97 309.35,1122.26 270.65,1122.26 
		231.94,1122.26 193.23,1122.26 154.52,1122.26 154.52,1160.97 115.81,1160.97 115.81,1199.68 154.52,1199.68 193.23,1199.68 
		231.94,1199.68 270.65,1199.68 309.35,1199.68 348.06,1199.68 386.77,1199.68 425.48,1199.68 464.19,1199.68 464.19,1160.97 	"/>
	<polygon points="464.19,1006.13 425.48,1006.13 425.48,1044.84 386.77,1044.84 348.06,1044.84 309.35,1044.84 309.35,1083.55 
		348.06,1083.55 386.77,1083.55 425.48,1083.55 464.19,1083.55 464.19,1044.84 	"/>
	<polygon points="464.19,77.1 464.19,38.39 425.48,38.39 386.77,38.39 386.77,77.1 425.48,77.1 	"/>
	<rect x="386.77" y="967.42" width="38.71" height="38.71"/>
	<polygon fill="#FCFCFC" points="386.77,773.87 348.06,773.87 348.06,812.58 386.77,812.58 425.48,812.58 425.48,773.87 	"/>
	<polygon points="386.77,890 348.06,890 348.06,928.71 348.06,967.42 386.77,967.42 386.77,928.71 	"/>
	<polygon fill="#0026F5" points="348.06,231.94 348.06,270.65 386.77,270.65 386.77,309.35 386.77,348.06 425.48,348.06 
		464.19,348.06 464.19,309.35 502.9,309.35 502.9,270.65 541.61,270.65 541.61,231.94 541.61,193.23 580.32,193.23 580.32,154.52 
		619.03,154.52 619.03,115.81 657.74,115.81 657.74,77.1 696.45,77.1 696.45,38.39 657.74,38.39 619.03,38.39 580.32,38.39 
		541.61,38.39 502.9,38.39 464.19,38.39 464.19,77.1 425.48,77.1 386.77,77.1 386.77,115.81 386.77,154.52 348.06,154.52 
		348.06,193.23 	"/>
	<polygon points="386.77,115.81 386.77,77.1 348.06,77.1 348.06,115.81 348.06,154.52 386.77,154.52 	"/>
	<rect x="309.35" y="1006.13" fill="#0026F5" width="38.71" height="38.71"/>
	<polygon points="348.06,812.58 309.35,812.58 309.35,851.29 309.35,890 348.06,890 348.06,851.29 	"/>
	<rect x="309.35" y="773.87" fill="#BFBFBF" width="38.71" height="38.71"/>
	<polygon points="348.06,773.87 386.77,773.87 425.48,773.87 425.48,812.58 464.19,812.58 464.19,851.29 464.19,890 464.19,928.71 
		502.9,928.71 541.61,928.71 580.32,928.71 580.32,890 541.61,890 502.9,890 502.9,851.29 502.9,812.58 502.9,773.87 541.61,773.87 
		580.32,773.87 580.32,735.16 541.61,735.16 502.9,735.16 464.19,735.16 425.48,735.16 386.77,735.16 348.06,735.16 309.35,735.16 
		270.65,735.16 270.65,773.87 270.65,812.58 309.35,812.58 309.35,773.87 	"/>
	<rect x="309.35" y="502.9" fill="#000D7B" width="38.71" height="38.71"/>
	<polygon fill="#000D7B" points="309.35,309.35 309.35,348.06 309.35,386.77 348.06,386.77 348.06,425.48 348.06,464.19 
		386.77,464.19 425.48,464.19 464.19,464.19 502.9,464.19 541.61,464.19 580.32,464.19 619.03,464.19 619.03,425.48 657.74,425.48 
		657.74,386.77 619.03,386.77 619.03,348.06 580.32,348.06 580.32,309.35 541.61,309.35 541.61,270.65 502.9,270.65 502.9,309.35 
		464.19,309.35 464.19,348.06 425.48,348.06 386.77,348.06 386.77,309.35 386.77,270.65 348.06,270.65 348.06,231.94 309.35,231.94 
		309.35,270.65 	"/>
	<polygon points="348.06,193.23 348.06,154.52 309.35,154.52 309.35,193.23 309.35,231.94 348.06,231.94 	"/>
	<polygon fill="#000D7B" points="309.35,425.48 270.65,425.48 270.65,464.19 270.65,502.9 309.35,502.9 309.35,464.19 	"/>
	<polygon points="270.65,309.35 270.65,348.06 270.65,386.77 270.65,425.48 309.35,425.48 309.35,464.19 309.35,502.9 348.06,502.9 
		348.06,541.61 386.77,541.61 425.48,541.61 464.19,541.61 502.9,541.61 541.61,541.61 580.32,541.61 619.03,541.61 619.03,502.9 
		657.74,502.9 657.74,464.19 696.45,464.19 696.45,425.48 657.74,425.48 619.03,425.48 619.03,464.19 580.32,464.19 541.61,464.19 
		502.9,464.19 464.19,464.19 425.48,464.19 386.77,464.19 348.06,464.19 348.06,425.48 348.06,386.77 309.35,386.77 309.35,348.06 
		309.35,309.35 309.35,270.65 309.35,231.94 270.65,231.94 231.94,231.94 231.94,270.65 270.65,270.65 	"/>
	<polygon points="270.65,1044.84 309.35,1044.84 309.35,1006.13 270.65,1006.13 231.94,1006.13 231.94,967.42 193.23,967.42 
		154.52,967.42 154.52,1006.13 193.23,1006.13 193.23,1044.84 231.94,1044.84 	"/>
	<polygon fill="#000D7B" points="231.94,348.06 231.94,386.77 231.94,425.48 270.65,425.48 270.65,386.77 270.65,348.06 
		270.65,309.35 270.65,270.65 231.94,270.65 231.94,309.35 	"/>
	<polygon fill="#0026F5" points="231.94,967.42 231.94,1006.13 270.65,1006.13 309.35,1006.13 309.35,967.42 309.35,928.71 
		270.65,928.71 270.65,890 231.94,890 231.94,851.29 193.23,851.29 193.23,812.58 154.52,812.58 154.52,773.87 115.81,773.87 
		115.81,812.58 77.1,812.58 77.1,851.29 38.39,851.29 38.39,890 77.1,890 77.1,928.71 115.81,928.71 154.52,928.71 154.52,967.42 
		193.23,967.42 	"/>
	<polygon points="231.94,735.16 270.65,735.16 270.65,696.45 231.94,696.45 193.23,696.45 193.23,657.74 154.52,657.74 
		154.52,696.45 154.52,735.16 193.23,735.16 	"/>
	<polygon fill="#0026F5" points="193.23,696.45 231.94,696.45 270.65,696.45 270.65,735.16 309.35,735.16 348.06,735.16 
		386.77,735.16 425.48,735.16 464.19,735.16 502.9,735.16 541.61,735.16 580.32,735.16 580.32,696.45 619.03,696.45 657.74,696.45 
		696.45,696.45 696.45,657.74 735.16,657.74 773.87,657.74 812.58,657.74 812.58,619.03 851.29,619.03 851.29,580.32 890,580.32 
		890,541.61 890,502.9 928.71,502.9 928.71,464.19 928.71,425.48 967.42,425.48 967.42,386.77 967.42,348.06 967.42,309.35 
		967.42,270.65 928.71,270.65 928.71,231.94 890,231.94 890,193.23 851.29,193.23 812.58,193.23 812.58,231.94 812.58,270.65 
		812.58,309.35 812.58,348.06 812.58,386.77 812.58,425.48 773.87,425.48 773.87,464.19 735.16,464.19 735.16,502.9 696.45,502.9 
		696.45,541.61 657.74,541.61 619.03,541.61 619.03,580.32 580.32,580.32 541.61,580.32 502.9,580.32 464.19,580.32 425.48,580.32 
		386.77,580.32 348.06,580.32 348.06,541.61 309.35,541.61 309.35,502.9 270.65,502.9 270.65,464.19 270.65,425.48 231.94,425.48 
		231.94,386.77 231.94,348.06 231.94,309.35 193.23,309.35 193.23,348.06 154.52,348.06 154.52,386.77 154.52,425.48 115.81,425.48 
		115.81,464.19 115.81,502.9 115.81,541.61 115.81,580.32 154.52,580.32 154.52,619.03 154.52,657.74 193.23,657.74 	"/>
	<rect x="193.23" y="270.65" width="38.71" height="38.7"/>
	<rect x="154.52" y="1044.84" width="38.71" height="38.71"/>
	<polygon fill="#000D7B" points="154.52,812.58 193.23,812.58 193.23,851.29 231.94,851.29 231.94,890 270.65,890 270.65,928.71 
		309.35,928.71 309.35,967.42 309.35,1006.13 348.06,1006.13 348.06,1044.84 386.77,1044.84 425.48,1044.84 425.48,1006.13 
		386.77,1006.13 386.77,967.42 348.06,967.42 348.06,928.71 348.06,890 309.35,890 309.35,851.29 309.35,812.58 270.65,812.58 
		270.65,773.87 270.65,735.16 231.94,735.16 193.23,735.16 154.52,735.16 154.52,773.87 	"/>
	<rect x="154.52" y="309.35" width="38.71" height="38.71"/>
	<polygon points="154.52,1122.26 154.52,1083.55 115.81,1083.55 115.81,1122.26 115.81,1160.97 154.52,1160.97 	"/>
	<polygon points="115.81,928.71 77.1,928.71 77.1,967.42 115.81,967.42 154.52,967.42 154.52,928.71 	"/>
	<rect x="115.81" y="735.16" width="38.71" height="38.71"/>
	<polygon points="154.52,580.32 115.81,580.32 115.81,619.03 115.81,657.74 154.52,657.74 154.52,619.03 	"/>
	<polygon points="154.52,386.77 154.52,348.06 115.81,348.06 115.81,386.77 115.81,425.48 154.52,425.48 	"/>
	<rect x="77.1" y="1160.97" width="38.71" height="38.71"/>
	<rect x="77.1" y="773.87" width="38.71" height="38.71"/>
	<polygon points="115.81,502.9 115.81,464.19 115.81,425.48 77.1,425.48 77.1,464.19 77.1,502.9 77.1,541.61 77.1,580.32 
		115.81,580.32 115.81,541.61 	"/>
	<polygon points="38.39,890 38.39,851.29 -0.32,851.29 -0.32,890 -0.32,928.71 38.39,928.71 77.1,928.71 77.1,890 	"/>
	<rect x="38.39" y="812.58" width="38.71" height="38.71"/>
</g>
</svg>
