<?xml version="1.0" encoding="utf-8"?>
<!-- Generator: Adobe Illustrator 25.2.0, SVG Export Plug-In . SVG Version: 6.00 Build 0)  -->
<svg version="1.1" id="Layer_1" xmlns="http://www.w3.org/2000/svg" xmlns:xlink="http://www.w3.org/1999/xlink" x="0px" y="0px"
	 viewBox="0 0 1200 1200" enable-background="new 0 0 1200 1200" xml:space="preserve">
<g>
	<polygon fill="#060606" points="1160.97,657.74 1160.97,696.45 1160.97,735.16 1160.97,773.87 1160.97,812.58 1160.97,851.29 
		1160.97,890 1199.68,890 1199.68,851.29 1199.68,812.58 1199.68,773.87 1199.68,735.16 1199.68,696.45 1199.68,657.74 	"/>
	<polygon fill="#060606" points="1122.26,928.71 1122.26,967.42 1160.97,967.42 1160.97,928.71 1160.97,890 1122.26,890 	"/>
	<polygon fill="#838383" points="1160.97,812.58 1160.97,773.87 1160.97,735.16 1160.97,696.45 1160.97,657.74 1122.26,657.74 
		1083.55,657.74 1083.55,696.45 1122.26,696.45 1122.26,735.16 1122.26,773.87 1122.26,812.58 1083.55,812.58 1083.55,851.29 
		1083.55,890 1044.84,890 1044.84,928.71 1044.84,967.42 1006.13,967.42 1006.13,1006.13 1006.13,1044.84 967.42,1044.84 
		967.42,1083.55 967.42,1122.26 928.71,1122.26 890,1122.26 851.29,1122.26 812.58,1122.26 773.87,1122.26 735.16,1122.26 
		696.45,1122.26 657.74,1122.26 619.03,1122.26 580.32,1122.26 541.61,1122.26 502.9,1122.26 464.19,1122.26 425.48,1122.26 
		386.77,1122.26 348.06,1122.26 309.35,1122.26 270.65,1122.26 231.94,1122.26 193.23,1122.26 154.52,1122.26 115.81,1122.26 
		77.1,1122.26 38.39,1122.26 38.39,1083.55 38.39,1044.84 38.39,1006.13 38.39,967.42 -0.32,967.42 -0.32,1006.13 -0.32,1044.84 
		-0.32,1083.55 -0.32,1122.26 -0.32,1160.97 38.39,1160.97 77.1,1160.97 115.81,1160.97 154.52,1160.97 193.23,1160.97 
		231.94,1160.97 270.65,1160.97 309.35,1160.97 348.06,1160.97 386.77,1160.97 425.48,1160.97 464.19,1160.97 502.9,1160.97 
		541.61,1160.97 580.32,1160.97 619.03,1160.97 657.74,1160.97 696.45,1160.97 735.16,1160.97 773.87,1160.97 812.58,1160.97 
		851.29,1160.97 890,1160.97 928.71,1160.97 967.42,1160.97 1006.13,1160.97 1006.13,1122.26 1044.84,1122.26 1044.84,1083.55 
		1044.84,1044.84 1083.55,1044.84 1083.55,1006.13 1083.55,967.42 1122.26,967.42 1122.26,928.71 1122.26,890 1160.97,890 
		1160.97,851.29 	"/>
	<polygon fill="#060606" points="1083.55,1006.13 1083.55,1044.84 1122.26,1044.84 1122.26,1006.13 1122.26,967.42 1083.55,967.42 	
		"/>
	<polygon fill="#060606" points="1083.55,425.48 1083.55,464.19 1122.26,464.19 1122.26,425.48 1122.26,386.77 1083.55,386.77 	"/>
	<polygon fill="#060606" points="1122.26,270.65 1122.26,309.35 1122.26,348.06 1122.26,386.77 1160.97,386.77 1160.97,348.06 
		1160.97,309.35 1160.97,270.65 1160.97,231.94 1122.26,231.94 1083.55,231.94 1083.55,270.65 	"/>
	<polygon fill="#060606" points="1044.84,1083.55 1044.84,1122.26 1083.55,1122.26 1083.55,1083.55 1083.55,1044.84 
		1044.84,1044.84 	"/>
	<polygon fill="#060606" points="1044.84,502.9 1044.84,541.61 1083.55,541.61 1083.55,502.9 1083.55,464.19 1044.84,464.19 	"/>
	<polygon fill="#95FCFE" points="1044.84,464.19 1083.55,464.19 1083.55,425.48 1083.55,386.77 1044.84,386.77 1044.84,425.48 	"/>
	<polygon fill="#367E7F" points="1083.55,348.06 1083.55,309.35 1044.84,309.35 1006.13,309.35 1006.13,348.06 1044.84,348.06 
		1044.84,386.77 1083.55,386.77 	"/>
	<polygon fill="#95FCFE" points="1083.55,309.35 1083.55,348.06 1083.55,386.77 1122.26,386.77 1122.26,348.06 1122.26,309.35 
		1122.26,270.65 1083.55,270.65 1083.55,231.94 1044.84,231.94 1006.13,231.94 1006.13,193.23 967.42,193.23 928.71,193.23 
		928.71,154.52 890,154.52 851.29,154.52 851.29,115.81 812.58,115.81 773.87,115.81 773.87,154.52 735.16,154.52 735.16,193.23 
		773.87,193.23 812.58,193.23 851.29,193.23 851.29,231.94 890,231.94 928.71,231.94 928.71,270.65 967.42,270.65 1006.13,270.65 
		1006.13,309.35 1044.84,309.35 	"/>
	<polygon fill="#060606" points="1006.13,1160.97 967.42,1160.97 928.71,1160.97 890,1160.97 851.29,1160.97 812.58,1160.97 
		773.87,1160.97 735.16,1160.97 696.45,1160.97 657.74,1160.97 619.03,1160.97 580.32,1160.97 541.61,1160.97 502.9,1160.97 
		464.19,1160.97 425.48,1160.97 386.77,1160.97 348.06,1160.97 309.35,1160.97 270.65,1160.97 231.94,1160.97 193.23,1160.97 
		154.52,1160.97 115.81,1160.97 77.1,1160.97 38.39,1160.97 -0.32,1160.97 -0.32,1199.68 38.39,1199.68 77.1,1199.68 
		115.81,1199.68 154.52,1199.68 193.23,1199.68 231.94,1199.68 270.65,1199.68 309.35,1199.68 348.06,1199.68 386.77,1199.68 
		425.48,1199.68 464.19,1199.68 502.9,1199.68 541.61,1199.68 580.32,1199.68 619.03,1199.68 657.74,1199.68 696.45,1199.68 
		735.16,1199.68 773.87,1199.68 812.58,1199.68 851.29,1199.68 890,1199.68 928.71,1199.68 967.42,1199.68 1006.13,1199.68 
		1044.84,1199.68 1044.84,1160.97 1044.84,1122.26 1006.13,1122.26 	"/>
	<polygon fill="#060606" points="1006.13,657.74 967.42,657.74 928.71,657.74 928.71,696.45 967.42,696.45 1006.13,696.45 
		1044.84,696.45 1083.55,696.45 1083.55,657.74 1083.55,619.03 1044.84,619.03 1044.84,657.74 	"/>
	<polygon fill="#060606" points="1006.13,580.32 1006.13,619.03 1044.84,619.03 1044.84,580.32 1044.84,541.61 1006.13,541.61 	"/>
	<polygon fill="#95FCFE" points="1006.13,541.61 1044.84,541.61 1044.84,502.9 1044.84,464.19 1006.13,464.19 1006.13,502.9 	"/>
	<polygon fill="#367E7F" points="1044.84,425.48 1044.84,386.77 1006.13,386.77 1006.13,425.48 1006.13,464.19 1044.84,464.19 	"/>
	<polygon fill="#060606" points="1044.84,231.94 1083.55,231.94 1083.55,193.23 1044.84,193.23 1006.13,193.23 1006.13,231.94 	"/>
	<polygon fill="#060606" points="967.42,851.29 1006.13,851.29 1006.13,812.58 1006.13,773.87 967.42,773.87 967.42,812.58 	"/>
	<polygon fill="#367E7F" points="1006.13,502.9 1006.13,464.19 967.42,464.19 967.42,502.9 967.42,541.61 1006.13,541.61 	"/>
	<polygon fill="#367E7F" points="967.42,270.65 928.71,270.65 928.71,309.35 967.42,309.35 1006.13,309.35 1006.13,270.65 	"/>
	<polygon fill="#060606" points="928.71,890 890,890 851.29,890 812.58,890 773.87,890 735.16,890 696.45,890 657.74,890 
		619.03,890 580.32,890 580.32,928.71 619.03,928.71 657.74,928.71 696.45,928.71 735.16,928.71 773.87,928.71 812.58,928.71 
		851.29,928.71 890,928.71 928.71,928.71 967.42,928.71 967.42,890 967.42,851.29 928.71,851.29 	"/>
	<polygon fill="#95FCFE" points="967.42,657.74 1006.13,657.74 1044.84,657.74 1044.84,619.03 1006.13,619.03 1006.13,580.32 
		1006.13,541.61 967.42,541.61 967.42,580.32 967.42,619.03 928.71,619.03 928.71,657.74 	"/>
	<polygon fill="#367E7F" points="967.42,580.32 967.42,541.61 928.71,541.61 928.71,580.32 928.71,619.03 967.42,619.03 	"/>
	<polygon fill="#060606" points="967.42,193.23 1006.13,193.23 1006.13,154.52 967.42,154.52 928.71,154.52 928.71,193.23 	"/>
	<polygon fill="#367E7F" points="890,696.45 928.71,696.45 928.71,657.74 928.71,619.03 890,619.03 890,657.74 	"/>
	<polygon fill="#367E7F" points="890,231.94 851.29,231.94 851.29,270.65 890,270.65 928.71,270.65 928.71,231.94 	"/>
	<polygon fill="#060606" points="890,154.52 928.71,154.52 928.71,115.81 890,115.81 851.29,115.81 851.29,154.52 	"/>
	<polygon fill="#367E7F" points="812.58,193.23 773.87,193.23 735.16,193.23 735.16,231.94 773.87,231.94 812.58,231.94 
		851.29,231.94 851.29,193.23 	"/>
	<polygon fill="#060606" points="851.29,115.81 851.29,77.1 812.58,77.1 773.87,77.1 773.87,115.81 812.58,115.81 	"/>
	<polygon fill="#060606" points="735.16,348.06 735.16,386.77 773.87,386.77 812.58,386.77 812.58,348.06 812.58,309.35 
		773.87,309.35 773.87,348.06 	"/>
	<rect x="735.16" y="309.35" fill="#4B8C8D" width="38.71" height="38.71"/>
	<rect x="735.16" y="270.65" fill="#060606" width="38.71" height="38.7"/>
	<rect x="735.16" y="115.81" fill="#060606" width="38.71" height="38.71"/>
	<polygon fill="#367E7F" points="696.45,348.06 657.74,348.06 619.03,348.06 580.32,348.06 541.61,348.06 502.9,348.06 
		464.19,348.06 425.48,348.06 425.48,309.35 386.77,309.35 386.77,348.06 386.77,386.77 425.48,386.77 464.19,386.77 502.9,386.77 
		541.61,386.77 580.32,386.77 619.03,386.77 657.74,386.77 696.45,386.77 735.16,386.77 735.16,348.06 	"/>
	<rect x="696.45" y="270.65" fill="#4B8C8D" width="38.71" height="38.7"/>
	<polygon fill="#060606" points="735.16,154.52 696.45,154.52 696.45,115.81 696.45,77.1 657.74,77.1 657.74,115.81 657.74,154.52 
		657.74,193.23 696.45,193.23 696.45,231.94 696.45,270.65 735.16,270.65 735.16,231.94 735.16,193.23 	"/>
	<rect x="657.74" y="386.77" fill="#060606" width="38.71" height="38.71"/>
	<polygon fill="#E3EC5A" points="619.03,386.77 580.32,386.77 541.61,386.77 541.61,425.48 580.32,425.48 619.03,425.48 
		657.74,425.48 657.74,386.77 	"/>
	<polygon fill="#4B8C8D" points="619.03,231.94 619.03,270.65 657.74,270.65 696.45,270.65 696.45,231.94 696.45,193.23 
		657.74,193.23 619.03,193.23 	"/>
	<rect x="619.03" y="38.39" fill="#060606" width="38.71" height="38.71"/>
	<rect x="580.32" y="-0.32" fill="#060606" width="38.71" height="38.71"/>
	<polygon fill="#E3EC5A" points="619.03,890 657.74,890 696.45,890 735.16,890 773.87,890 812.58,890 851.29,890 890,890 
		928.71,890 928.71,851.29 967.42,851.29 967.42,812.58 967.42,773.87 928.71,773.87 890,773.87 851.29,773.87 812.58,773.87 
		773.87,773.87 773.87,735.16 735.16,735.16 696.45,735.16 657.74,735.16 619.03,735.16 619.03,773.87 619.03,812.58 619.03,851.29 
		580.32,851.29 580.32,890 	"/>
	<polygon fill="#060606" points="580.32,425.48 580.32,464.19 619.03,464.19 657.74,464.19 657.74,425.48 619.03,425.48 	"/>
	<rect x="541.61" y="1006.13" fill="#6D130C" width="38.71" height="38.71"/>
	<rect x="541.61" y="425.48" fill="#C2C057" width="38.71" height="38.71"/>
	<polygon fill="#FFFFFF" points="541.61,193.23 580.32,193.23 580.32,154.52 580.32,115.81 541.61,115.81 541.61,154.52 	"/>
	<rect x="541.61" y="38.39" fill="#367E7F" width="38.71" height="38.71"/>
	<rect x="502.9" y="1006.13" fill="#E63122" width="38.71" height="38.71"/>
	<rect x="502.9" y="967.42" fill="#060606" width="38.71" height="38.71"/>
	<polygon fill="#060606" points="502.9,812.58 541.61,812.58 541.61,773.87 541.61,735.16 502.9,735.16 502.9,773.87 	"/>
	<rect x="502.9" y="386.77" fill="#C2C057" width="38.71" height="38.71"/>
	<rect x="502.9" y="270.65" fill="#FFFFFF" width="38.71" height="38.7"/>
	<polygon fill="#367E7F" points="541.61,193.23 541.61,154.52 541.61,115.81 541.61,77.1 502.9,77.1 502.9,115.81 502.9,154.52 
		502.9,193.23 502.9,231.94 541.61,231.94 	"/>
	<rect x="464.19" y="967.42" fill="#E3EC5A" width="38.71" height="38.71"/>
	<rect x="464.19" y="928.71" fill="#060606" width="38.71" height="38.71"/>
	<polygon fill="#060606" points="464.19,851.29 464.19,890 502.9,890 502.9,851.29 502.9,812.58 464.19,812.58 	"/>
	<rect x="464.19" y="231.94" fill="#367E7F" width="38.71" height="38.71"/>
	<rect x="425.48" y="928.71" fill="#E3EC5A" width="38.71" height="38.71"/>
	<rect x="425.48" y="890" fill="#060606" width="38.71" height="38.71"/>
	<polygon fill="#95FCFE" points="464.19,348.06 502.9,348.06 541.61,348.06 580.32,348.06 619.03,348.06 657.74,348.06 
		696.45,348.06 735.16,348.06 735.16,309.35 696.45,309.35 696.45,270.65 657.74,270.65 619.03,270.65 619.03,231.94 619.03,193.23 
		657.74,193.23 657.74,154.52 657.74,115.81 657.74,77.1 619.03,77.1 619.03,38.39 580.32,38.39 580.32,77.1 541.61,77.1 
		541.61,115.81 580.32,115.81 580.32,154.52 580.32,193.23 541.61,193.23 541.61,231.94 502.9,231.94 502.9,270.65 541.61,270.65 
		541.61,309.35 502.9,309.35 502.9,270.65 464.19,270.65 464.19,309.35 425.48,309.35 425.48,348.06 	"/>
	<rect x="425.48" y="270.65" fill="#367E7F" width="38.71" height="38.7"/>
	<polygon fill="#060606" points="386.77,928.71 348.06,928.71 309.35,928.71 270.65,928.71 231.94,928.71 193.23,928.71 
		154.52,928.71 154.52,967.42 193.23,967.42 231.94,967.42 270.65,967.42 309.35,967.42 348.06,967.42 386.77,967.42 425.48,967.42 
		425.48,928.71 	"/>
	<rect x="386.77" y="890" fill="#E3EC5A" width="38.71" height="38.71"/>
	<rect x="386.77" y="851.29" fill="#060606" width="38.71" height="38.71"/>
	<rect x="348.06" y="851.29" fill="#E3EC5A" width="38.71" height="38.71"/>
	<rect x="348.06" y="812.58" fill="#060606" width="38.71" height="38.71"/>
	<rect x="309.35" y="812.58" fill="#E3EC5A" width="38.71" height="38.71"/>
	<rect x="309.35" y="773.87" fill="#060606" width="38.71" height="38.71"/>
	<rect x="270.65" y="773.87" fill="#838383" width="38.7" height="38.71"/>
	<polygon fill="#838383" points="270.65,657.74 309.35,657.74 348.06,657.74 386.77,657.74 425.48,657.74 464.19,657.74 
		502.9,657.74 541.61,657.74 580.32,657.74 619.03,657.74 657.74,657.74 696.45,657.74 735.16,657.74 773.87,657.74 812.58,657.74 
		851.29,657.74 890,657.74 890,619.03 851.29,619.03 812.58,619.03 773.87,619.03 735.16,619.03 696.45,619.03 657.74,619.03 
		619.03,619.03 580.32,619.03 541.61,619.03 502.9,619.03 464.19,619.03 425.48,619.03 386.77,619.03 348.06,619.03 309.35,619.03 
		270.65,619.03 231.94,619.03 193.23,619.03 193.23,657.74 231.94,657.74 	"/>
	<polygon fill="#FFFFFF" points="193.23,928.71 231.94,928.71 270.65,928.71 309.35,928.71 348.06,928.71 386.77,928.71 386.77,890 
		348.06,890 348.06,851.29 309.35,851.29 309.35,812.58 270.65,812.58 270.65,773.87 309.35,773.87 348.06,773.87 348.06,812.58 
		386.77,812.58 386.77,851.29 425.48,851.29 425.48,890 464.19,890 464.19,851.29 464.19,812.58 502.9,812.58 502.9,773.87 
		502.9,735.16 464.19,735.16 425.48,735.16 386.77,735.16 348.06,735.16 309.35,735.16 270.65,735.16 231.94,735.16 231.94,773.87 
		231.94,812.58 231.94,851.29 193.23,851.29 193.23,890 154.52,890 154.52,928.71 	"/>
	<polygon fill="#838383" points="193.23,696.45 193.23,657.74 154.52,657.74 154.52,696.45 154.52,735.16 193.23,735.16 	"/>
	<polygon fill="#838383" points="154.52,773.87 154.52,735.16 115.81,735.16 115.81,773.87 115.81,812.58 154.52,812.58 	"/>
	<polygon fill="#838383" points="115.81,851.29 115.81,812.58 77.1,812.58 77.1,851.29 77.1,890 115.81,890 	"/>
	<path fill="#C0C0C0" d="M38.39,1044.84v38.71v38.71H77.1h38.71h38.71h38.71h38.71h38.71h38.7h38.71h38.71h38.71h38.71h38.71h38.71
		h38.71h38.71h38.71h38.71h38.71h38.71h38.71h38.71H890h38.71h38.71v-38.71v-38.71h38.71v-38.71v-38.71h38.71v-38.71V890h38.71
		v-38.71v-38.71h38.71v-38.71v-38.71v-38.71h-38.71h-38.71h-38.71h-38.71h-38.71H890v-38.71h-38.71h-38.71h-38.71h-38.71h-38.71
		h-38.71h-38.71h-38.71h-38.71H502.9h-38.71h-38.71h-38.71h-38.71h-38.71h-38.7h-38.71h-38.71v38.71v38.71h-38.71v38.71v38.71
		h-38.71v38.71V890H77.1v38.71v38.71H38.39v38.71V1044.84z M619.03,851.29v-38.71v-38.71v-38.71h38.71h38.71h38.71h38.71v38.71
		h38.71h38.71H890h38.71h38.71h38.71v38.71v38.71h-38.71V890v38.71h-38.71H890h-38.71h-38.71h-38.71h-38.71h-38.71h-38.71h-38.71
		h-38.71V890v-38.71H619.03z M193.23,890v-38.71h38.71v-38.71v-38.71v-38.71h38.71h38.7h38.71h38.71h38.71h38.71h38.71h38.71v38.71
		v38.71H502.9v38.71V890h-38.71v38.71h38.71v38.71h38.71v38.71h38.71v38.71h-38.71H502.9v-38.71h-38.71v-38.71h-38.71h-38.71h-38.71
		h-38.71h-38.7h-38.71h-38.71h-38.71v-38.71V890H193.23z"/>
	<polygon fill="#838383" points="77.1,928.71 77.1,890 38.39,890 38.39,928.71 38.39,967.42 77.1,967.42 	"/>
</g>
</svg>
