<?xml version="1.0" encoding="utf-8"?>
<!-- Generator: Adobe Illustrator 25.2.0, SVG Export Plug-In . SVG Version: 6.00 Build 0)  -->
<svg version="1.1" id="Layer_1" xmlns="http://www.w3.org/2000/svg" xmlns:xlink="http://www.w3.org/1999/xlink" x="0px" y="0px"
	 viewBox="0 0 1200 1200" enable-background="new 0 0 1200 1200" xml:space="preserve">
<g>
	<polygon fill="#E9E071" points="116.13,251.61 154.84,251.61 193.55,251.61 232.26,251.61 270.97,251.61 309.68,251.61 
		348.39,251.61 387.1,251.61 425.81,251.61 464.52,251.61 503.23,251.61 541.94,251.61 580.65,251.61 580.65,212.9 541.94,212.9 
		541.94,174.2 503.23,174.2 503.23,135.48 464.52,135.48 425.81,135.48 387.1,135.48 348.39,135.48 309.68,135.48 270.97,135.48 
		232.26,135.48 193.55,135.48 154.84,135.48 154.84,174.2 116.13,174.2 116.13,212.9 77.42,212.9 77.42,251.61 	"/>
	<polygon points="1161.29,329.03 1161.29,367.74 1161.29,406.45 1161.29,445.16 1161.29,483.88 1161.29,522.58 1161.29,561.29 
		1161.29,600.01 1161.29,638.7 1161.29,677.41 1161.29,716.12 1161.29,754.83 1161.29,793.54 1161.29,832.26 1161.29,870.96 
		1161.29,909.67 1161.29,948.39 1161.29,987.09 1161.29,1025.8 1161.29,1064.52 1200,1064.52 1200,1025.8 1200,987.09 1200,948.39 
		1200,909.67 1200,870.96 1200,832.26 1200,793.54 1200,754.83 1200,716.12 1200,677.41 1200,638.7 1200,600.01 1200,561.29 
		1200,522.58 1200,483.88 1200,445.16 1200,406.45 1200,367.74 1200,329.03 	"/>
	<polygon fill="#A6A669" points="1161.29,987.09 1161.29,948.39 1161.29,909.67 1161.29,870.96 1161.29,832.26 1161.29,793.54 
		1161.29,754.83 1161.29,716.12 1161.29,677.41 1161.29,638.7 1161.29,600.01 1161.29,561.29 1161.29,522.58 1161.29,483.88 
		1161.29,445.16 1161.29,406.45 1161.29,367.74 1161.29,329.03 1122.58,329.03 1122.58,367.74 1122.58,406.45 1122.58,445.16 
		1122.58,483.88 1122.58,522.58 1122.58,561.29 1122.58,600.01 1122.58,638.7 1122.58,677.41 1122.58,716.12 1122.58,754.83 
		1122.58,793.54 1122.58,832.26 1122.58,870.96 1122.58,909.67 1122.58,948.39 1122.58,987.09 1122.58,1025.8 1083.87,1025.8 
		1045.16,1025.8 1006.45,1025.8 967.74,1025.8 929.03,1025.8 890.32,1025.8 851.61,1025.8 812.9,1025.8 774.19,1025.8 
		735.48,1025.8 696.77,1025.8 658.06,1025.8 619.35,1025.8 580.65,1025.8 541.94,1025.8 503.23,1025.8 464.52,1025.8 425.81,1025.8 
		387.1,1025.8 348.39,1025.8 309.68,1025.8 270.97,1025.8 232.26,1025.8 193.55,1025.8 154.84,1025.8 116.13,1025.8 77.42,1025.8 
		38.71,1025.8 38.71,1064.52 77.42,1064.52 116.13,1064.52 154.84,1064.52 193.55,1064.52 232.26,1064.52 270.97,1064.52 
		309.68,1064.52 348.39,1064.52 387.1,1064.52 425.81,1064.52 464.52,1064.52 503.23,1064.52 541.94,1064.52 580.65,1064.52 
		619.35,1064.52 658.06,1064.52 696.77,1064.52 735.48,1064.52 774.19,1064.52 812.9,1064.52 851.61,1064.52 890.32,1064.52 
		929.03,1064.52 967.74,1064.52 1006.45,1064.52 1045.16,1064.52 1083.87,1064.52 1122.58,1064.52 1161.29,1064.52 1161.29,1025.8 	
		"/>
	<rect x="1122.58" y="290.33" width="38.71" height="38.71"/>
	<polygon points="1083.87,1064.52 1045.16,1064.52 1006.45,1064.52 967.74,1064.52 929.03,1064.52 890.32,1064.52 851.61,1064.52 
		812.9,1064.52 774.19,1064.52 735.48,1064.52 696.77,1064.52 658.06,1064.52 619.35,1064.52 580.65,1064.52 541.94,1064.52 
		503.23,1064.52 464.52,1064.52 425.81,1064.52 387.1,1064.52 348.39,1064.52 309.68,1064.52 270.97,1064.52 232.26,1064.52 
		193.55,1064.52 154.84,1064.52 116.13,1064.52 77.42,1064.52 38.71,1064.52 38.71,1103.22 77.42,1103.22 116.13,1103.22 
		154.84,1103.22 193.55,1103.22 232.26,1103.22 270.97,1103.22 309.68,1103.22 348.39,1103.22 387.1,1103.22 425.81,1103.22 
		464.52,1103.22 503.23,1103.22 541.94,1103.22 580.65,1103.22 619.35,1103.22 658.06,1103.22 696.77,1103.22 735.48,1103.22 
		774.19,1103.22 812.9,1103.22 851.61,1103.22 890.32,1103.22 929.03,1103.22 967.74,1103.22 1006.45,1103.22 1045.16,1103.22 
		1083.87,1103.22 1122.58,1103.22 1161.29,1103.22 1161.29,1064.52 1122.58,1064.52 	"/>
	<path fill="#F6EE81" d="M1045.16,329.03h-38.71h-38.71h-38.71h-38.71h-38.71H812.9h-38.71h-38.71h-38.71h-38.71h-38.71h-38.7
		h-38.71h-38.71h-38.71h-38.71H387.1h-38.71h-38.71h-38.71h-38.71h-38.71h-38.71h-38.71H77.42v38.71v38.71v38.71v38.71v38.71v38.71
		v38.71v38.7v38.71v38.71v38.71v38.71v38.71v38.71v38.71v38.71v38.71v38.71h38.71h38.71h38.71h38.71h38.71h38.71h38.71h38.71h38.71
		h38.71h38.71h38.71h38.71h38.7h38.71h38.71h38.71h38.71h38.71h38.71h38.71h38.71h38.71h38.71h38.71h38.71h38.71v-38.71v-38.71
		v-38.71v-38.71v-38.71v-38.71v-38.71v-38.71v-38.71V638.7v-38.7v-38.71v-38.71v-38.71v-38.71v-38.71v-38.71v-38.71h-38.71H1045.16z
		 M812.9,987.09h-38.71h-38.71h-38.71h-38.71v-38.71v-38.71v-38.71h38.71v-38.71v-38.71v-38.71v-38.71v-38.71h-38.71h-38.71v38.71
		h-38.7v38.71v38.71v38.71v38.71h38.7v38.71v38.71v38.71h-38.7h-38.71h-38.71h-38.71h-38.71v-38.71v-38.71v-38.71h38.71v-38.71
		v-38.71v-38.71v-38.71h-38.71v-38.71H387.1h-38.71v38.71h-38.71h-38.71v-38.71h-38.71V638.7v-38.7v-38.71v-38.71h38.71v-38.71
		h38.71h38.71v38.71h38.71h38.71v-38.71h38.71h38.71h38.71h38.71h38.7h38.71v-38.71v-38.71v-38.71h38.71h38.71h38.71h38.71h38.71
		v38.71v38.71v38.71v38.71v38.71H812.9v38.71v38.7v38.71v38.71v38.71v38.71v38.71v38.71h38.71v38.71v38.71v38.71H812.9z"/>
	<polygon fill="#FFFFFF" points="1045.16,290.33 1006.45,290.33 967.74,290.33 929.03,290.33 890.32,290.33 851.61,290.33 
		812.9,290.33 774.19,290.33 735.48,290.33 696.77,290.33 658.06,290.33 619.35,290.33 580.65,290.33 541.94,290.33 503.23,290.33 
		464.52,290.33 425.81,290.33 387.1,290.33 348.39,290.33 309.68,290.33 270.97,290.33 232.26,290.33 193.55,290.33 154.84,290.33 
		116.13,290.33 77.42,290.33 38.71,290.33 38.71,329.03 38.71,367.74 38.71,406.45 38.71,445.16 38.71,483.88 38.71,522.58 
		38.71,561.29 38.71,600.01 38.71,638.7 38.71,677.41 38.71,716.12 38.71,754.83 38.71,793.54 38.71,832.26 38.71,870.96 
		38.71,909.67 38.71,948.39 38.71,987.09 38.71,1025.8 77.42,1025.8 77.42,987.09 77.42,948.39 77.42,909.67 77.42,870.96 
		77.42,832.26 77.42,793.54 77.42,754.83 77.42,716.12 77.42,677.41 77.42,638.7 77.42,600.01 77.42,561.29 77.42,522.58 
		77.42,483.88 77.42,445.16 77.42,406.45 77.42,367.74 77.42,329.03 116.13,329.03 154.84,329.03 193.55,329.03 232.26,329.03 
		270.97,329.03 309.68,329.03 348.39,329.03 387.1,329.03 425.81,329.03 464.52,329.03 503.23,329.03 541.94,329.03 580.65,329.03 
		619.35,329.03 658.06,329.03 696.77,329.03 735.48,329.03 774.19,329.03 812.9,329.03 851.61,329.03 890.32,329.03 929.03,329.03 
		967.74,329.03 1006.45,329.03 1045.16,329.03 1083.87,329.03 1122.58,329.03 1122.58,290.33 1083.87,290.33 	"/>
	<polygon points="851.61,909.67 851.61,870.96 812.9,870.96 812.9,909.67 812.9,948.39 812.9,987.09 851.61,987.09 851.61,948.39 	
		"/>
	<polygon points="812.9,445.16 812.9,483.88 812.9,522.58 812.9,561.29 851.61,561.29 851.61,522.58 851.61,483.88 851.61,445.16 
		851.61,406.45 851.61,367.74 812.9,367.74 812.9,406.45 	"/>
	<polygon fill="#800000" points="812.9,909.67 812.9,870.96 812.9,832.26 774.19,832.26 735.48,832.26 696.77,832.26 696.77,870.96 
		735.48,870.96 774.19,870.96 774.19,909.67 774.19,948.39 774.19,987.09 812.9,987.09 812.9,948.39 	"/>
	<polygon fill="#FF0000" points="774.19,909.67 735.48,909.67 735.48,948.39 735.48,987.09 774.19,987.09 774.19,948.39 	"/>
	<rect x="735.48" y="870.96" fill="#BFBFBF" width="38.71" height="38.71"/>
	<polygon fill="#BFBFBF" points="774.19,754.83 774.19,716.12 735.48,716.12 735.48,754.83 735.48,793.54 735.48,832.26 
		774.19,832.26 774.19,793.54 	"/>
	<polygon points="774.19,716.12 774.19,754.83 774.19,793.54 774.19,832.26 812.9,832.26 812.9,793.54 812.9,754.83 812.9,716.12 
		812.9,677.41 812.9,638.7 812.9,600.01 812.9,561.29 774.19,561.29 774.19,600.01 735.48,600.01 735.48,638.7 696.77,638.7 
		658.06,638.7 619.35,638.7 619.35,677.41 658.06,677.41 696.77,677.41 696.77,716.12 735.48,716.12 	"/>
	<polygon fill="#BFBFBF" points="774.19,483.88 774.19,445.16 774.19,406.45 735.48,406.45 735.48,445.16 696.77,445.16 
		696.77,483.88 696.77,522.58 696.77,561.29 735.48,561.29 735.48,600.01 774.19,600.01 774.19,561.29 774.19,522.58 	"/>
	<polygon fill="#FF00FF" points="735.48,909.67 696.77,909.67 696.77,948.39 696.77,987.09 735.48,987.09 735.48,948.39 	"/>
	<rect x="696.77" y="870.96" fill="#FFFFFF" width="38.71" height="38.71"/>
	<polygon fill="#808080" points="735.48,793.54 735.48,754.83 735.48,716.12 696.77,716.12 696.77,754.83 696.77,793.54 
		696.77,832.26 735.48,832.26 	"/>
	<rect x="696.77" y="600.01" fill="#FFFFFF" width="38.71" height="38.7"/>
	<rect x="696.77" y="561.29" width="38.71" height="38.71"/>
	<rect x="696.77" y="406.45" fill="#FFFFFF" width="38.71" height="38.71"/>
	<polygon fill="#800000" points="696.77,909.67 696.77,870.96 658.06,870.96 658.06,909.67 658.06,948.39 658.06,987.09 
		696.77,987.09 696.77,948.39 	"/>
	<polygon fill="#808080" points="658.06,600.01 619.35,600.01 619.35,638.7 658.06,638.7 696.77,638.7 696.77,600.01 	"/>
	<rect x="658.06" y="561.29" fill="#FFFFFF" width="38.71" height="38.71"/>
	<rect x="658.06" y="522.58" width="38.71" height="38.71"/>
	<polygon fill="#BFBFBF" points="658.06,600.01 658.06,561.29 619.35,561.29 580.65,561.29 541.94,561.29 503.23,561.29 
		464.52,561.29 425.81,561.29 425.81,600.01 425.81,638.7 464.52,638.7 503.23,638.7 503.23,677.41 503.23,716.12 503.23,754.83 
		503.23,793.54 541.94,793.54 541.94,754.83 541.94,716.12 541.94,677.41 541.94,638.7 580.65,638.7 619.35,638.7 619.35,600.01 	
		"/>
	<polygon fill="#808080" points="658.06,290.33 696.77,290.33 735.48,290.33 774.19,290.33 812.9,290.33 851.61,290.33 
		890.32,290.33 929.03,290.33 967.74,290.33 1006.45,290.33 1045.16,290.33 1083.87,290.33 1122.58,290.33 1122.58,251.61 
		1083.87,251.61 1045.16,251.61 1006.45,251.61 967.74,251.61 929.03,251.61 890.32,251.61 851.61,251.61 812.9,251.61 
		774.19,251.61 735.48,251.61 696.77,251.61 658.06,251.61 619.35,251.61 619.35,290.33 	"/>
	<polygon points="580.65,948.39 580.65,987.09 619.35,987.09 619.35,948.39 619.35,909.67 619.35,870.96 580.65,870.96 
		580.65,909.67 	"/>
	<polygon fill="#808080" points="580.65,638.7 541.94,638.7 541.94,677.41 580.65,677.41 619.35,677.41 619.35,638.7 	"/>
	<rect x="580.65" y="212.9" fill="#808080" width="38.7" height="38.71"/>
	<polygon points="541.94,677.41 541.94,716.12 541.94,754.83 541.94,793.54 541.94,832.26 580.65,832.26 580.65,793.54 
		580.65,754.83 580.65,716.12 619.35,716.12 619.35,677.41 580.65,677.41 	"/>
	<rect x="541.94" y="174.2" fill="#808080" width="38.71" height="38.71"/>
	<polygon fill="#1700FF" points="541.94,909.67 541.94,870.96 503.23,870.96 503.23,909.67 503.23,948.39 503.23,987.09 
		541.94,987.09 541.94,948.39 	"/>
	<polygon fill="#060080" points="541.94,793.54 503.23,793.54 503.23,832.26 464.52,832.26 464.52,870.96 503.23,870.96 
		541.94,870.96 541.94,909.67 541.94,948.39 541.94,987.09 580.65,987.09 580.65,948.39 580.65,909.67 580.65,870.96 580.65,832.26 
		541.94,832.26 	"/>
	<rect x="503.23" y="135.48" fill="#808080" width="38.71" height="38.71"/>
	<polygon fill="#04FFFF" points="503.23,909.67 503.23,870.96 464.52,870.96 464.52,909.67 464.52,948.39 464.52,987.09 
		503.23,987.09 503.23,948.39 	"/>
	<polygon points="503.23,793.54 503.23,754.83 503.23,716.12 503.23,677.41 464.52,677.41 425.81,677.41 425.81,716.12 
		464.52,716.12 464.52,754.83 464.52,793.54 464.52,832.26 503.23,832.26 	"/>
	<polygon fill="#808080" points="503.23,677.41 503.23,638.7 464.52,638.7 425.81,638.7 425.81,677.41 464.52,677.41 	"/>
	<polygon fill="#808080" points="503.23,522.58 541.94,522.58 580.65,522.58 619.35,522.58 658.06,522.58 696.77,522.58 
		696.77,483.88 696.77,445.16 696.77,406.45 735.48,406.45 774.19,406.45 774.19,445.16 774.19,483.88 774.19,522.58 774.19,561.29 
		812.9,561.29 812.9,522.58 812.9,483.88 812.9,445.16 812.9,406.45 812.9,367.74 774.19,367.74 735.48,367.74 696.77,367.74 
		658.06,367.74 658.06,406.45 658.06,445.16 658.06,483.88 619.35,483.88 580.65,483.88 541.94,483.88 503.23,483.88 464.52,483.88 
		425.81,483.88 425.81,522.58 464.52,522.58 	"/>
	<polygon fill="#060080" points="464.52,909.67 464.52,870.96 425.81,870.96 425.81,909.67 425.81,948.39 425.81,987.09 
		464.52,987.09 464.52,948.39 	"/>
	<polygon fill="#FFFFFF" points="464.52,561.29 503.23,561.29 541.94,561.29 580.65,561.29 619.35,561.29 658.06,561.29 
		658.06,522.58 619.35,522.58 580.65,522.58 541.94,522.58 503.23,522.58 464.52,522.58 425.81,522.58 425.81,561.29 	"/>
	<polygon points="387.1,638.7 348.39,638.7 348.39,677.41 387.1,677.41 425.81,677.41 425.81,638.7 	"/>
	<polygon fill="#808080" points="387.1,600.01 348.39,600.01 348.39,638.7 387.1,638.7 425.81,638.7 425.81,600.01 	"/>
	<polygon fill="#FFFFFF" points="387.1,600.01 425.81,600.01 425.81,561.29 387.1,561.29 348.39,561.29 348.39,600.01 	"/>
	<polygon fill="#808080" points="387.1,561.29 425.81,561.29 425.81,522.58 387.1,522.58 348.39,522.58 348.39,561.29 	"/>
	<polygon fill="#808080" points="309.68,638.7 270.97,638.7 270.97,600.01 270.97,561.29 270.97,522.58 232.26,522.58 
		232.26,561.29 232.26,600.01 232.26,638.7 232.26,677.41 270.97,677.41 309.68,677.41 348.39,677.41 348.39,638.7 	"/>
	<polygon fill="#BFBFBF" points="348.39,561.29 309.68,561.29 309.68,600.01 270.97,600.01 270.97,638.7 309.68,638.7 348.39,638.7 
		348.39,600.01 	"/>
	<polygon fill="#808080" points="348.39,522.58 348.39,483.88 309.68,483.88 270.97,483.88 270.97,522.58 309.68,522.58 	"/>
	<polygon points="270.97,677.41 270.97,716.12 309.68,716.12 348.39,716.12 348.39,677.41 309.68,677.41 	"/>
	<polygon fill="#FFFFFF" points="270.97,600.01 309.68,600.01 309.68,561.29 348.39,561.29 348.39,522.58 309.68,522.58 
		270.97,522.58 270.97,561.29 	"/>
	<polygon fill="#808080" points="232.26,135.48 270.97,135.48 309.68,135.48 348.39,135.48 387.1,135.48 425.81,135.48 
		464.52,135.48 503.23,135.48 503.23,96.77 464.52,96.77 425.81,96.77 387.1,96.77 348.39,96.77 309.68,96.77 270.97,96.77 
		232.26,96.77 193.55,96.77 154.84,96.77 154.84,135.48 193.55,135.48 	"/>
	<rect x="116.13" y="135.48" fill="#808080" width="38.71" height="38.71"/>
	<rect x="77.42" y="174.2" fill="#808080" width="38.71" height="38.71"/>
	<polygon fill="#BFBFBF" points="77.42,290.33 116.13,290.33 154.84,290.33 193.55,290.33 232.26,290.33 270.97,290.33 
		309.68,290.33 348.39,290.33 387.1,290.33 425.81,290.33 464.52,290.33 503.23,290.33 541.94,290.33 580.65,290.33 619.35,290.33 
		619.35,251.61 580.65,251.61 541.94,251.61 503.23,251.61 464.52,251.61 425.81,251.61 387.1,251.61 348.39,251.61 309.68,251.61 
		270.97,251.61 232.26,251.61 193.55,251.61 154.84,251.61 116.13,251.61 77.42,251.61 38.71,251.61 38.71,290.33 	"/>
	<rect x="38.71" y="212.9" fill="#808080" width="38.71" height="38.71"/>
	<polygon fill="#808080" points="38.71,987.09 38.71,948.39 38.71,909.67 38.71,870.96 38.71,832.26 38.71,793.54 38.71,754.83 
		38.71,716.12 38.71,677.41 38.71,638.7 38.71,600.01 38.71,561.29 38.71,522.58 38.71,483.88 38.71,445.16 38.71,406.45 
		38.71,367.74 38.71,329.03 38.71,290.33 38.71,251.61 0,251.61 0,290.33 0,329.03 0,367.74 0,406.45 0,445.16 0,483.88 0,522.58 
		0,561.29 0,600.01 0,638.7 0,677.41 0,716.12 0,754.83 0,793.54 0,832.26 0,870.96 0,909.67 0,948.39 0,987.09 0,1025.8 0,1064.52 
		38.71,1064.52 38.71,1025.8 	"/>
</g>
</svg>
